<svg version="1.1" id="Layer_1" xmlns="http://www.w3.org/2000/svg" xmlns:xlink="http://www.w3.org/1999/xlink" x="0px" y="0px"
	 width="100%" viewBox="0 0 1024 1024" enable-background="new 0 0 1024 1024" xml:space="preserve">

<path fill="#012852" opacity="1.000000" stroke="none" 
	d="
M712.970642,336.054169 
	C720.054504,336.369904 727.157043,336.469360 734.215576,337.078766 
	C738.786743,337.473389 741.192017,340.368042 741.006836,345.994263 
	C741.030884,370.955658 741.049438,395.043121 741.068054,419.130585 
	C741.030945,424.867554 741.496033,430.660858 740.859802,436.330597 
	C739.150085,451.567169 737.546143,466.854980 734.825195,481.928406 
	C731.667297,499.422333 727.969727,516.869812 723.419006,534.049438 
	C716.431702,560.427795 707.123047,586.090332 694.668030,610.397766 
	C681.358643,636.372681 665.800049,661.030396 645.987732,682.623840 
	C616.929382,714.294678 583.580261,740.528564 545.125244,760.011658 
	C538.776733,763.228210 532.239441,766.070374 525.817444,769.144348 
	C518.018311,772.877441 510.082062,773.040833 502.252930,769.601135 
	C478.224396,759.044434 455.183533,746.585693 434.291748,730.685852 
	C420.468018,720.165161 406.994751,708.991943 394.557861,696.885071 
	C374.914520,677.762939 358.534424,655.858459 344.566620,632.236938 
	C329.345245,606.495361 317.486511,579.242859 308.760498,550.651611 
	C304.716309,537.400635 300.398438,524.178650 297.399261,510.678162 
	C294.197296,496.264984 292.224670,481.565430 290.055084,466.940491 
	C288.413513,455.874939 286.771210,444.761871 286.110901,433.611816 
	C285.452332,422.491455 286.065735,411.298492 286.012207,400.137878 
	C285.997192,397.007874 285.596802,393.879730 285.469452,390.036499 
	C285.680267,373.827301 285.794800,358.332336 285.909363,342.837341 
	C288.124084,338.453766 290.928619,335.471985 296.604279,335.928558 
	C302.727783,336.421143 308.923218,336.019287 315.880920,336.285522 
	C325.057556,336.710175 333.440369,336.936157 341.823578,336.953369 
	C344.211884,336.958282 346.601471,336.356567 348.990448,336.033020 
	C370.614990,334.867920 391.432007,330.206604 411.732422,322.592682 
	C428.402435,316.340363 444.206573,308.518463 458.462891,297.979279 
	C469.682983,289.684662 480.150879,280.365021 490.861267,271.391296 
	C497.025055,266.226959 502.930847,260.754456 509.100372,255.597260 
	C512.424866,252.818298 515.695190,253.556168 518.910339,256.306702 
	C534.309021,269.480255 549.216431,283.325470 565.426819,295.419464 
	C576.709534,303.837036 589.672791,310.079559 602.172546,316.755890 
	C608.499573,320.135284 615.279785,322.977112 622.177917,324.910217 
	C635.750061,328.713684 649.512512,331.869049 663.272888,334.950409 
	C667.420593,335.879211 671.821167,335.678375 676.885986,336.272400 
	C687.700684,336.700195 697.735046,336.898865 707.770203,336.955078 
	C709.501953,336.964783 711.237061,336.369812 712.970642,336.054169 
M594.957520,658.979919 
	C594.957520,658.979919 594.899048,658.933533 595.503540,658.901611 
	C596.002563,658.598572 596.501587,658.295471 597.476929,657.508484 
	C614.008789,647.643494 622.291382,633.568359 621.852722,613.836121 
	C621.256531,587.020691 621.487671,560.177429 621.857544,533.353027 
	C622.127258,513.799377 614.546326,499.172821 596.946228,490.233002 
	C594.424622,488.952148 593.781067,487.436920 593.805786,484.834106 
	C593.894226,475.503632 593.585266,466.167572 593.763184,456.840027 
	C594.334412,426.898926 580.423157,404.939819 556.129333,388.942902 
	C504.977325,355.260437 440.251404,390.589417 433.824585,444.079071 
	C432.283905,456.901825 433.079712,470.024597 433.133759,483.007996 
	C433.150085,486.926239 432.201813,489.260162 428.474060,491.118378 
	C412.558167,499.052246 405.190796,512.596069 405.020020,529.930359 
	C404.729431,559.422607 404.916931,588.919739 404.958771,618.414795 
	C404.962524,621.063171 405.082123,623.772827 405.636353,626.348877 
	C408.650482,640.358337 416.795685,650.595520 429.521942,658.275452 
	C430.208527,658.466492 430.895081,658.657593 431.847107,658.751587 
	C431.847107,658.751587 431.995880,658.991882 432.384155,659.621155 
	C434.005280,660.007690 435.626373,660.394165 437.138824,660.825134 
	C437.138824,660.825134 437.124420,660.708618 437.524139,661.335022 
	C441.030762,662.223389 444.534332,663.870728 448.044434,663.884888 
	C491.683197,664.060852 535.323853,664.127808 578.961060,663.811279 
	C583.605774,663.777527 588.231750,661.142761 592.857971,659.824768 
	C592.857971,659.824768 592.754578,659.785706 593.391602,659.825623 
	C593.915649,659.518921 594.439758,659.212219 594.957520,658.979919 
z"/>
<path fill="#04284F" opacity="1.000000" stroke="none" 
	d="
M741.386597,418.837250 
	C741.049438,395.043121 741.030884,370.955658 741.022827,346.391327 
	C741.363281,347.153442 741.976807,348.391479 741.981018,349.631561 
	C742.056641,371.952759 742.061768,394.274261 742.060669,416.595673 
	C742.060608,417.245087 741.828857,417.894501 741.386597,418.837250 
z"/>
<path fill="#04284F" opacity="1.000000" stroke="none" 
	d="
M285.586426,343.129028 
	C285.794800,358.332336 285.680267,373.827301 285.315216,389.646729 
	C285.130981,374.454376 285.197235,358.937561 285.586426,343.129028 
z"/>
<path fill="#022752" opacity="1.000000" stroke="none" 
	d="
M712.506226,336.016541 
	C711.237061,336.369812 709.501953,336.964783 707.770203,336.955078 
	C697.735046,336.898865 687.700684,336.700195 677.343750,336.293579 
	C688.694946,336.017944 700.368408,335.998444 712.506226,336.016541 
z"/>
<path fill="#04284F" opacity="1.000000" stroke="none" 
	d="
M348.524475,335.989624 
	C346.601471,336.356567 344.211884,336.958282 341.823578,336.953369 
	C333.440369,336.936157 325.057556,336.710175 316.350586,336.311890 
	C326.703888,336.022308 337.381165,335.984283 348.524475,335.989624 
z"/>
<path fill="#FDFEFE" opacity="1.000000" stroke="none" 
	d="
M429.110840,657.671997 
	C416.795685,650.595520 408.650482,640.358337 405.636353,626.348877 
	C405.082123,623.772827 404.962524,621.063171 404.958771,618.414795 
	C404.916931,588.919739 404.729431,559.422607 405.020020,529.930359 
	C405.190796,512.596069 412.558167,499.052246 428.474060,491.118378 
	C432.201813,489.260162 433.150085,486.926239 433.133759,483.007996 
	C433.079712,470.024597 432.283905,456.901825 433.824585,444.079071 
	C440.251404,390.589417 504.977325,355.260437 556.129333,388.942902 
	C580.423157,404.939819 594.334412,426.898926 593.763184,456.840027 
	C593.585266,466.167572 593.894226,475.503632 593.805786,484.834106 
	C593.781067,487.436920 594.424622,488.952148 596.946228,490.233002 
	C614.546326,499.172821 622.127258,513.799377 621.857544,533.353027 
	C621.487671,560.177429 621.256531,587.020691 621.852722,613.836121 
	C622.291382,633.568359 614.008789,647.643494 596.933472,657.742920 
	C595.893005,658.296082 595.396057,658.614807 594.899048,658.933533 
	C594.899048,658.933533 594.957520,658.979919 594.646606,658.946167 
	C593.808655,659.203552 593.281616,659.494629 592.754578,659.785706 
	C592.754578,659.785706 592.857971,659.824768 592.452759,659.816162 
	C586.475281,660.566101 580.906677,661.950562 575.330200,661.982666 
	C536.379761,662.207214 497.427551,662.226013 458.476410,662.118713 
	C451.357819,662.099121 444.241699,661.201111 437.124420,660.708618 
	C437.124420,660.708618 437.138824,660.825134 436.949951,660.546509 
	C435.172699,659.842590 433.584290,659.417236 431.995880,658.991882 
	C431.995880,658.991882 431.847107,658.751587 431.485840,658.528931 
	C430.453339,658.094910 429.782104,657.883484 429.110840,657.671997 
M476.286255,429.832733 
	C469.827454,438.505920 466.388245,448.118652 466.691742,459.063995 
	C466.913147,467.047821 466.702637,475.043030 466.729279,483.032990 
	C466.749725,489.164856 467.549072,489.953491 473.667175,489.946167 
	C492.310394,489.923889 510.953644,489.880585 529.596863,489.848053 
	C537.919800,489.833557 546.253906,490.051819 554.557190,489.641815 
	C556.439392,489.548889 559.773743,487.311035 559.795532,486.015900 
	C559.997131,474.057861 561.035645,461.853638 559.089111,450.178131 
	C555.829651,430.627899 543.476440,417.357513 524.275879,412.465302 
	C505.279846,407.625214 489.290588,414.328369 476.286255,429.832733 
M496.964752,592.479736 
	C495.552246,598.299316 494.061005,604.101318 492.750458,609.943726 
	C491.553802,615.278381 492.875519,616.893738 498.430969,616.911560 
	C508.260620,616.943054 518.090942,616.901367 527.920410,616.817383 
	C533.112793,616.773010 534.444336,615.115356 533.241272,610.006409 
	C531.333862,601.906128 529.259705,593.845276 527.263489,585.765869 
	C526.580872,583.002991 526.982544,581.016907 529.608337,578.976379 
	C538.055786,572.411499 540.396851,561.547607 536.187134,550.995667 
	C532.086304,540.716431 522.435425,534.519409 511.449341,535.110962 
	C500.753845,535.686829 491.384705,543.068420 488.876038,553.176331 
	C485.876221,565.263184 490.376221,574.640991 500.028595,582.051880 
	C499.043243,585.349182 498.095825,588.519470 496.964752,592.479736 
z"/>
<path fill="#04284F" opacity="1.000000" stroke="none" 
	d="
M437.324280,661.021790 
	C444.241699,661.201111 451.357819,662.099121 458.476410,662.118713 
	C497.427551,662.226013 536.379761,662.207214 575.330200,661.982666 
	C580.906677,661.950562 586.475281,660.566101 592.456970,659.761047 
	C588.231750,661.142761 583.605774,663.777527 578.961060,663.811279 
	C535.323853,664.127808 491.683197,664.060852 448.044434,663.884888 
	C444.534332,663.870728 441.030762,662.223389 437.324280,661.021790 
z"/>
<path fill="#04284F" opacity="1.000000" stroke="none" 
	d="
M432.190002,659.306519 
	C433.584290,659.417236 435.172699,659.842590 437.004303,660.524292 
	C435.626373,660.394165 434.005280,660.007690 432.190002,659.306519 
z"/>
<path fill="#04284F" opacity="1.000000" stroke="none" 
	d="
M429.316406,657.973755 
	C429.782104,657.883484 430.453339,658.094910 431.353149,658.577515 
	C430.895081,658.657593 430.208527,658.466492 429.316406,657.973755 
z"/>
<path fill="#04284F" opacity="1.000000" stroke="none" 
	d="
M595.201294,658.917603 
	C595.396057,658.614807 595.893005,658.296082 596.695312,657.984863 
	C596.501587,658.295471 596.002563,658.598572 595.201294,658.917603 
z"/>
<path fill="#04284F" opacity="1.000000" stroke="none" 
	d="
M593.073120,659.805664 
	C593.281616,659.494629 593.808655,659.203552 594.649780,658.909058 
	C594.439758,659.212219 593.915649,659.518921 593.073120,659.805664 
z"/>
<path fill="#022752" opacity="1.000000" stroke="none" 
	d="
M476.522705,429.562958 
	C489.290588,414.328369 505.279846,407.625214 524.275879,412.465302 
	C543.476440,417.357513 555.829651,430.627899 559.089111,450.178131 
	C561.035645,461.853638 559.997131,474.057861 559.795532,486.015900 
	C559.773743,487.311035 556.439392,489.548889 554.557190,489.641815 
	C546.253906,490.051819 537.919800,489.833557 529.596863,489.848053 
	C510.953644,489.880585 492.310394,489.923889 473.667175,489.946167 
	C467.549072,489.953491 466.749725,489.164856 466.729279,483.032990 
	C466.702637,475.043030 466.913147,467.047821 466.691742,459.063995 
	C466.388245,448.118652 469.827454,438.505920 476.522705,429.562958 
z"/>
<path fill="#04284F" opacity="1.000000" stroke="none" 
	d="
M497.056580,592.084717 
	C498.095825,588.519470 499.043243,585.349182 500.028595,582.051880 
	C490.376221,574.640991 485.876221,565.263184 488.876038,553.176331 
	C491.384705,543.068420 500.753845,535.686829 511.449341,535.110962 
	C522.435425,534.519409 532.086304,540.716431 536.187134,550.995667 
	C540.396851,561.547607 538.055786,572.411499 529.608337,578.976379 
	C526.982544,581.016907 526.580872,583.002991 527.263489,585.765869 
	C529.259705,593.845276 531.333862,601.906128 533.241272,610.006409 
	C534.444336,615.115356 533.112793,616.773010 527.920410,616.817383 
	C518.090942,616.901367 508.260620,616.943054 498.430969,616.911560 
	C492.875519,616.893738 491.553802,615.278381 492.750458,609.943726 
	C494.061005,604.101318 495.552246,598.299316 497.056580,592.084717 
z"/>
</svg>