<svg version="1.1" id="Layer_1" xmlns="http://www.w3.org/2000/svg" xmlns:xlink="http://www.w3.org/1999/xlink" x="0px" y="0px"
	 width="100%" viewBox="0 0 742 320" enable-background="new 0 0 742 320" xml:space="preserve">

<path fill="#3B7F82" opacity="1.000000" stroke="none" 
	d="
M427.410583,235.915482 
	C426.957672,181.923050 426.972229,127.993340 426.964783,73.605392 
	C453.672058,73.105278 480.401367,73.063416 507.720398,73.398430 
	C516.031372,86.523674 523.767029,99.263351 531.469910,112.022804 
	C539.344849,125.067284 547.265564,138.085724 554.947205,151.243393 
	C555.921570,152.912399 556.532532,155.924484 555.687317,157.353394 
	C544.926208,175.545853 533.802673,193.523300 522.915588,211.642181 
	C518.127380,219.611038 513.666626,227.776733 509.057251,235.853058 
	C481.997528,235.894775 454.937805,235.936493 427.410583,235.915482 
M500.213409,183.306580 
	C500.330841,183.222076 500.448273,183.137573 500.565704,183.053085 
	C500.357483,183.065414 500.149231,183.077744 500.394409,182.348022 
	C498.363922,175.175690 496.333466,168.003357 494.225342,160.556763 
	C500.933167,155.661392 507.689301,150.730774 514.445435,145.800156 
	C507.248016,144.835632 500.326996,144.663330 493.421082,144.911285 
	C490.168732,145.028061 488.813354,143.868530 487.854431,140.813370 
	C485.766083,134.159897 483.198883,127.656715 480.444000,120.030891 
	C477.685486,127.744339 475.164825,134.234055 473.083740,140.861801 
	C472.129150,143.901794 470.753174,145.039429 467.503479,144.915710 
	C460.609131,144.653214 453.697815,144.835648 446.793427,144.835648 
	C452.108368,149.891068 457.577667,154.107758 463.317657,157.916580 
	C466.219208,159.841965 466.728729,161.772583 465.631042,164.956253 
	C463.609131,170.820709 461.989288,176.823807 459.799255,184.108429 
	C466.367218,179.738647 471.793304,176.259354 477.065704,172.560974 
	C479.408203,170.917786 481.188019,170.710587 483.700409,172.486893 
	C488.972656,176.214447 494.548035,179.513229 500.213409,183.306580 
z"/>
<path fill="#fff" opacity="1.000000" stroke="none" 
	d="
M199.589600,69.087280 
	C210.714462,71.137512 220.693878,74.816422 229.744415,80.881805 
	C244.330612,90.657028 252.499878,104.560951 255.886597,121.515732 
	C256.197601,123.072769 255.927994,124.745789 255.927994,126.974297 
	C244.682144,126.974297 233.907211,127.101707 223.145752,126.779320 
	C222.056824,126.746696 220.645309,124.140747 220.073898,122.490005 
	C217.628891,115.426582 214.032532,109.175690 207.751114,104.925926 
	C192.399261,94.539459 167.279785,97.751228 155.823090,116.147102 
	C150.140015,125.272354 147.017792,135.186691 146.243942,145.569290 
	C144.957779,162.825607 146.717667,179.788406 156.892181,194.638229 
	C164.918732,206.353058 176.340759,211.611969 190.370667,209.833786 
	C204.690933,208.018814 215.154083,200.595306 219.279846,186.203018 
	C220.720154,181.178635 223.078247,179.570923 228.277527,179.861710 
	C237.215988,180.361618 246.202621,180.000000 256.248291,180.000000 
	C254.032562,197.022842 247.130188,210.875595 235.165741,222.350815 
	C222.988251,234.030396 208.254105,239.419495 191.353180,240.564133 
	C187.993332,240.889984 184.919067,240.936768 181.099625,240.633179 
	C179.535339,240.188583 178.718491,240.045029 177.896805,240.007523 
	C160.870651,239.229660 146.063599,233.053619 133.819000,221.243362 
	C120.918571,208.800522 114.563011,193.058701 112.014275,175.603760 
	C111.260414,170.440979 110.769722,165.239777 110.158440,160.056183 
	C110.111107,158.630615 110.063766,157.205032 110.369652,155.058914 
	C110.720558,140.530243 112.800293,127.173454 117.973427,114.223961 
	C124.944031,96.775009 135.612259,82.825165 153.319611,75.460793 
	C159.925461,72.713463 167.053741,71.222359 173.943817,69.158447 
	C182.336563,69.111046 190.729294,69.063652 199.589600,69.087280 
z"/>
<path fill="#fff" opacity="1.000000" stroke="none" 
	d="
M370.715851,73.008560 
	C371.466187,73.700928 371.804596,74.708099 372.357483,74.844223 
	C394.580231,80.315674 406.588776,101.201332 406.126068,122.322632 
	C405.879852,133.562759 404.865448,144.338043 399.795990,154.630890 
	C392.338165,169.772995 379.408051,176.014313 363.633850,176.847778 
	C349.841766,177.576492 335.980743,176.999908 322.150177,176.999985 
	C320.348389,177.000000 318.546600,177.000000 316.176025,177.000000 
	C316.176025,196.701599 316.176025,215.939468 316.176025,235.584869 
	C304.370514,235.584869 293.137268,235.584869 281.450012,235.584869 
	C281.450012,181.656036 281.450012,127.645729 281.450012,73.513908 
	C310.631042,73.513908 339.662018,73.513908 368.899719,73.177185 
	C369.538971,72.866013 369.971436,72.891556 370.715851,73.008560 
M349.117065,148.967026 
	C350.900085,148.644913 352.671661,148.151810 354.468170,148.031784 
	C360.607178,147.621567 369.114929,143.988403 370.150513,135.364838 
	C370.889496,129.211166 370.993256,122.802925 370.140594,116.680984 
	C369.044586,108.811958 363.756287,103.723160 355.785919,103.241348 
	C342.896027,102.462143 329.953705,102.547249 317.032898,102.301170 
	C316.792480,102.296593 316.544067,102.711845 316.408203,102.833656 
	C316.408203,118.154778 316.408203,133.372498 316.408203,148.994507 
	C327.268799,148.994507 337.726624,148.994507 349.117065,148.967026 
z"/>
<path fill="#FF600D" opacity="1.000000" stroke="none" 
	d="
M550.001709,235.834061 
	C542.976440,235.881714 535.951233,235.929382 528.472900,235.549194 
	C531.143616,229.798950 534.217712,224.446701 537.399963,219.159500 
	C549.569885,198.939499 561.705200,178.697815 574.051697,158.585922 
	C575.644897,155.990677 575.838440,154.173416 574.283020,151.615387 
	C562.108887,131.593658 549.983215,111.541801 537.978394,91.418190 
	C534.428406,85.467331 531.312927,79.257248 527.998352,73.165939 
	C534.690674,73.118248 541.383057,73.070557 548.678589,73.403717 
	C549.626831,74.144058 550.054749,74.453682 550.304871,74.870148 
	C565.549683,100.255951 580.709290,125.693481 596.110168,150.984116 
	C597.828796,153.806381 597.938354,155.681412 596.271118,158.409576 
	C587.701843,172.431931 579.283264,186.546753 570.859802,200.657806 
	C563.872742,212.362701 556.951904,224.107147 550.001709,235.834061 
z"/>
<path fill="#FF600D" opacity="1.000000" stroke="none" 
	d="
M638.834778,152.996674 
	C638.881958,154.067566 638.929199,155.138443 638.594177,156.748199 
	C622.475586,183.469574 606.739258,209.652069 591.002991,235.834595 
	C583.977295,235.882080 576.951660,235.929565 569.472595,235.551849 
	C569.653198,234.187180 570.328552,233.272736 570.915039,232.304489 
	C579.515015,218.107254 588.123718,203.915207 596.687195,189.695984 
	C602.818115,179.515945 608.967346,169.344818 614.899841,159.049561 
	C615.913086,157.291290 616.955200,154.298416 616.161804,152.940308 
	C606.228088,135.935165 595.891479,119.166229 585.800781,102.251617 
	C580.065002,92.636963 574.590576,82.866341 568.998413,73.165970 
	C576.023621,73.118294 583.048889,73.070618 590.547607,73.450821 
	C606.959045,100.251358 622.896912,126.624008 638.834778,152.996674 
z"/>

<path fill="#FCFDFD" opacity="1.000000" stroke="none" 
	d="
M499.998962,182.988052 
	C494.548035,179.513229 488.972656,176.214447 483.700409,172.486893 
	C481.188019,170.710587 479.408203,170.917786 477.065704,172.560974 
	C471.793304,176.259354 466.367218,179.738647 459.799255,184.108429 
	C461.989288,176.823807 463.609131,170.820709 465.631042,164.956253 
	C466.728729,161.772583 466.219208,159.841965 463.317657,157.916580 
	C457.577667,154.107758 452.108368,149.891068 446.793427,144.835648 
	C453.697815,144.835648 460.609131,144.653214 467.503479,144.915710 
	C470.753174,145.039429 472.129150,143.901794 473.083740,140.861801 
	C475.164825,134.234055 477.685486,127.744339 480.444000,120.030891 
	C483.198883,127.656715 485.766083,134.159897 487.854431,140.813370 
	C488.813354,143.868530 490.168732,145.028061 493.421082,144.911285 
	C500.326996,144.663330 507.248016,144.835632 514.445435,145.800156 
	C507.689301,150.730774 500.933167,155.661392 494.225342,160.556763 
	C496.333466,168.003357 498.363922,175.175690 500.182037,182.693451 
	C499.969666,183.038895 499.998962,182.988052 499.998962,182.988052 
z"/>
<path fill="#FCFDFD" opacity="1.000000" stroke="none" 
	d="
M499.955322,183.064484 
	C500.149231,183.077744 500.357483,183.065414 500.565704,183.053070 
	C500.448273,183.137573 500.330841,183.222076 500.106201,183.147308 
	C499.998962,182.988052 499.969666,183.038895 499.955322,183.064484 
z"/>

</svg>