<svg version="1.1" id="Layer_1" xmlns="http://www.w3.org/2000/svg" xmlns:xlink="http://www.w3.org/1999/xlink" x="0px" y="0px"
	 width="100%" viewBox="0 0 1024 1024" enable-background="new 0 0 1024 1024" xml:space="preserve">

<path fill="#111C25" opacity="1.000000" stroke="none" 
	d="
M474.952209,738.015686 
	C466.711060,746.878296 458.395874,755.673523 450.250122,764.622925 
	C442.543518,773.089783 435.022461,781.725525 427.405609,790.274292 
	C419.685913,798.938477 412.229919,807.863525 404.103821,816.129028 
	C399.876221,820.429260 394.798309,824.201538 389.478943,827.039917 
	C383.277771,830.348755 373.904144,826.313171 368.435425,818.629761 
	C364.039093,812.453003 362.336456,805.586060 366.754395,798.726501 
	C372.839935,789.277588 379.179504,779.981506 385.698120,770.824890 
	C395.552094,756.983093 405.681946,743.338013 415.643890,729.572693 
	C427.627411,713.013916 439.561005,696.418945 451.499603,679.827698 
	C451.980042,679.160095 452.290344,678.369934 453.201965,677.156494 
	C453.075378,676.083130 452.449219,675.010437 451.774323,674.978882 
	C448.508362,674.825989 445.224213,674.847656 441.956207,675.006714 
	C437.666412,675.215637 433.385742,675.611023 429.101135,675.926208 
	C423.641724,675.610840 418.183136,675.042175 412.722717,675.023926 
	C389.064606,674.945007 365.388855,675.525024 341.759216,674.711853 
	C335.586487,674.499512 329.088074,670.905579 323.544708,667.538574 
	C302.681244,654.866455 291.559753,636.418335 291.987396,611.536133 
	C292.170593,600.876709 291.988373,590.210999 291.887024,578.621582 
	C291.863800,538.491272 291.925751,499.287506 291.987732,460.083710 
	C291.848877,448.183411 292.425293,436.334839 299.091797,425.957611 
	C310.367065,408.406219 324.856171,395.962769 347.289703,395.934418 
	C368.908295,395.907104 390.529968,395.490662 412.142273,394.932770 
	C419.643219,394.739136 422.965881,388.009216 427.675781,383.537384 
	C436.554901,375.107056 445.310699,366.529755 454.537567,358.495728 
	C456.636963,356.667725 460.442932,356.158600 463.470825,356.138184 
	C491.121674,355.951904 518.774170,356.025391 546.426147,355.979889 
	C552.600708,355.969727 556.391357,360.243469 560.255066,363.931580 
	C569.771790,373.015594 578.826355,382.584351 588.360168,391.649597 
	C590.275391,393.470673 593.477051,394.828094 596.107361,394.865417 
	C614.926880,395.132721 633.762817,394.622894 652.571045,395.154938 
	C662.416260,395.433472 672.448608,395.895905 681.714355,400.283539 
	C693.345581,405.791412 701.731506,414.791504 708.602295,425.299988 
	C713.547852,432.863861 715.062744,441.364655 715.087830,450.437653 
	C715.238892,505.206512 715.427246,559.977356 716.080444,614.741821 
	C716.398560,641.409607 696.241272,666.296814 673.081909,672.994324 
	C667.930481,674.484009 662.314514,674.367249 655.984558,674.970581 
	C625.287842,674.956970 595.518860,674.945679 565.750122,675.009216 
	C563.875549,675.013184 562.002197,675.600159 560.128235,675.915894 
	C558.874634,676.098694 557.621033,676.281555 555.148682,676.642212 
	C559.131836,682.636780 562.475403,688.029785 566.173950,693.167358 
	C577.165100,708.434875 588.372070,723.547119 599.352661,738.822144 
	C612.645081,757.313171 626.078918,775.713074 638.902161,794.526917 
	C647.556580,807.224609 644.220337,816.032898 632.994019,825.066101 
	C627.918030,829.150452 616.378296,829.300415 610.503357,822.956116 
	C600.360046,812.002319 590.304138,800.967285 580.266174,789.916626 
	C574.466003,783.531250 568.845703,776.981873 563.014526,770.625427 
	C553.919128,760.710693 544.718811,750.892029 535.544678,741.049744 
	C534.763123,740.211304 533.844299,739.500854 532.442566,738.238770 
	C531.920349,744.455627 531.078674,750.111267 531.035339,755.772949 
	C530.875916,776.601807 530.934448,797.432861 531.005310,818.262695 
	C531.045471,830.082275 526.454407,839.427063 516.677673,846.165283 
	C506.610626,853.103516 491.614288,850.690735 484.885345,840.516724 
	C481.677338,835.666199 479.593384,830.072266 477.030273,823.946289 
	C477.033142,795.720825 477.007935,768.364136 476.973175,741.007385 
	C476.971497,739.687988 476.885925,738.368713 476.839417,737.049377 
	C476.210358,737.371521 475.581299,737.693604 474.952209,738.015686 
M479.978516,637.468506 
	C495.663788,641.099854 511.436493,640.985046 527.031616,637.455627 
	C590.323120,623.131531 627.459106,558.414673 608.316650,496.165253 
	C587.952881,429.944214 509.782776,399.810455 448.539764,434.572998 
	C409.405212,456.786407 387.573822,504.242401 396.512970,548.860962 
	C405.802521,595.228577 433.617950,624.614441 479.978516,637.468506 
M675.659912,439.832062 
	C664.622620,430.499298 650.851990,429.319305 639.738953,436.754150 
	C628.440491,444.313049 623.289795,458.483612 627.340210,470.865387 
	C631.637634,484.002045 644.244873,493.104767 657.818176,491.990265 
	C670.147278,490.977905 678.937012,484.253632 683.496704,472.751862 
	C688.374512,460.447479 685.234070,449.638184 675.659912,439.832062 
M338.970551,456.301514 
	C339.256104,447.010284 343.043518,439.686096 351.017975,434.655365 
	C352.269958,433.865509 353.518494,432.932800 354.454498,431.805298 
	C357.238953,428.450958 358.044067,424.685974 355.799347,420.738007 
	C353.584778,416.843079 349.913422,415.857300 345.913177,416.996643 
	C343.266449,417.750458 340.564728,419.008911 338.420227,420.712036 
	C326.730682,429.996094 321.407684,442.521606 320.972839,457.173035 
	C320.778137,463.732330 327.280396,468.078918 333.042908,464.962646 
	C335.647156,463.554321 336.988739,459.811157 338.970551,456.301514 
z"/>
<path fill="#121D26" opacity="1.000000" stroke="none" 
	d="
M226.818695,541.667786 
	C227.311981,568.195190 231.599640,594.143005 239.734283,619.348389 
	C248.818771,647.496826 262.559845,673.343140 280.543121,696.835449 
	C287.050873,705.336731 293.416016,714.202087 301.238678,721.384705 
	C314.337219,733.411255 328.407837,744.404480 342.365753,755.458191 
	C348.525146,760.335999 349.413696,762.192261 345.600677,769.069763 
	C343.990967,771.973083 342.286072,774.825989 340.752747,777.768738 
	C338.861542,781.398193 336.719086,782.724731 332.983673,779.733459 
	C320.840271,770.008972 308.433716,760.610046 296.377991,750.779724 
	C277.570129,735.443542 262.569427,716.739868 249.657562,696.335571 
	C236.484146,675.518005 224.677139,653.928162 217.410721,630.285645 
	C212.620453,614.699646 208.113327,598.910339 205.174301,582.900879 
	C201.458572,562.660583 201.596115,542.000671 202.029114,521.432983 
	C202.256332,510.641632 201.804184,499.752808 203.122208,489.088837 
	C204.732208,476.062500 207.171082,463.037689 210.549408,450.358002 
	C214.244049,436.491058 219.531708,423.054230 223.883835,409.353302 
	C225.169556,405.305725 227.390350,404.294983 230.912262,406.031219 
	C235.483887,408.284912 240.341949,410.303375 244.206573,413.481293 
	C245.834885,414.820282 246.167694,419.106079 245.502792,421.635254 
	C241.782181,435.787720 236.953979,449.671600 233.726181,463.924042 
	C230.960892,476.134155 229.841217,488.716766 227.987564,501.133698 
	C227.595764,503.758209 227.177094,506.378662 226.927399,509.432007 
	C227.211288,510.490082 227.459702,511.119476 227.447815,511.743927 
	C227.257736,521.718872 227.034439,531.693298 226.818695,541.667786 
z"/>
<path fill="#111D25" opacity="1.000000" stroke="none" 
	d="
M751.765503,278.263428 
	C768.674316,297.322235 771.771240,318.924927 762.450623,341.487976 
	C753.820251,362.379883 732.041931,379.617950 705.417603,376.840363 
	C687.392456,374.959930 673.323547,365.683563 662.862671,350.550568 
	C654.887817,339.014038 652.107422,326.506927 653.025940,312.866211 
	C653.817749,301.107269 657.855957,290.598175 665.803162,281.816833 
	C671.956543,275.017670 678.688721,268.968292 687.101379,264.833923 
	C704.690796,256.189636 729.925903,259.274445 744.692017,272.223602 
	C746.933777,274.189484 749.237549,276.084686 751.765503,278.263428 
M737.523499,305.227081 
	C730.158020,297.549103 723.494629,296.394409 714.525269,301.904114 
	C710.999878,304.069733 708.670288,303.066376 705.740845,301.045013 
	C698.547119,296.081146 690.301208,297.275116 684.877991,303.755829 
	C679.415771,310.283173 679.929993,318.387787 686.211609,324.708435 
	C694.236023,332.782776 702.262878,340.854645 710.676697,349.317902 
	C712.097229,348.074280 713.546570,347.027618 714.726807,345.735260 
	C721.200623,338.647186 727.278564,331.160217 734.140442,324.475433 
	C739.916687,318.848236 741.700867,313.115021 737.523499,305.227081 
z"/>
<path fill="#111C24" opacity="1.000000" stroke="none" 
	d="
M557.323975,284.291992 
	C544.764221,305.928162 526.719116,318.089752 501.626556,317.879547 
	C487.630646,317.762268 475.573792,311.995209 465.215149,302.671875 
	C454.835114,293.329254 446.735504,282.410858 444.706726,268.302216 
	C442.055725,249.866577 444.132172,232.563919 456.533295,217.121597 
	C465.886719,205.474411 477.296875,197.861893 491.677032,195.796478 
	C511.589813,192.936401 529.720398,196.419968 545.229919,211.380661 
	C563.925110,229.414291 567.104797,250.617371 561.697571,274.412689 
	C560.941040,277.741882 558.924927,280.784821 557.323975,284.291992 
M475.101654,270.176514 
	C476.407715,272.091644 477.671783,274.037048 479.027557,275.916290 
	C483.363190,281.925812 489.164337,286.289978 496.295074,287.744293 
	C512.672119,291.084320 524.448853,284.877930 531.965515,270.473816 
	C534.323364,265.955353 535.849609,260.291504 535.569763,255.273880 
	C535.144775,247.654358 531.790283,240.665070 526.490662,234.772675 
	C520.103638,227.671295 511.901215,223.286453 502.781433,224.309952 
	C480.354675,226.826843 466.559814,246.599350 475.101654,270.176514 
z"/>
<path fill="#121D25" opacity="1.000000" stroke="none" 
	d="
M760.550171,415.340698 
	C758.790344,410.463348 757.283691,405.900055 755.656738,401.380066 
	C754.750000,398.860931 755.004333,397.150116 757.570007,395.541443 
	C762.992676,392.141357 768.160583,388.334839 774.547974,383.925201 
	C778.697021,393.505920 783.216187,401.812286 785.945435,410.670135 
	C792.368469,431.515808 799.062561,452.392242 803.464966,473.706940 
	C806.515503,488.476776 806.626709,503.990173 806.783936,519.184448 
	C806.955383,535.756592 806.143372,552.382080 804.824402,568.909668 
	C804.081543,578.217651 801.464294,587.377563 799.666016,596.599243 
	C798.959351,600.223267 796.824768,601.107361 793.474121,599.822876 
	C788.831970,598.043335 784.154419,596.355469 779.485413,594.646606 
	C776.721558,593.635010 776.028503,592.041260 776.417053,588.893188 
	C778.480591,572.175293 780.563965,555.440002 781.820068,538.649414 
	C782.619934,527.958130 782.773376,517.090149 781.815613,506.427277 
	C780.536011,492.181976 778.904541,477.817535 775.581421,463.945648 
	C771.667847,447.608185 765.783081,431.742889 760.550171,415.340698 
z"/>
<path fill="#111C25" opacity="1.000000" stroke="none" 
	d="
M253.478546,297.023376 
	C271.598785,295.712921 285.035706,303.655884 292.925446,318.536774 
	C302.658691,336.894714 298.086060,362.783752 275.909576,373.765930 
	C250.902817,386.149628 224.174744,370.916382 218.814087,347.237183 
	C215.554733,332.839935 218.319305,319.343994 230.357742,308.438660 
	C237.123230,302.309937 244.731201,299.357239 253.478546,297.023376 
z"/>
<path fill="#101B24" opacity="1.000000" stroke="none" 
	d="
M792.221069,642.780151 
	C800.877075,651.059692 805.397827,660.593811 805.058533,672.497192 
	C804.676270,685.909790 798.286926,695.695984 787.954651,703.466431 
	C778.115173,710.866272 753.974182,710.449524 746.537170,703.945862 
	C736.343628,695.031677 730.023499,685.376404 729.654236,670.775208 
	C729.007874,645.216675 755.266113,627.549500 777.315735,634.432495 
	C782.532776,636.061096 787.100281,639.770508 792.221069,642.780151 
z"/>
<path fill="#121D26" opacity="1.000000" stroke="none" 
	d="
M328.608337,285.634033 
	C350.367188,271.112701 373.068512,259.226044 397.301086,250.322723 
	C398.079163,250.036865 398.900970,249.866730 399.671783,249.564636 
	C409.812592,245.590485 410.052917,245.705002 409.940552,256.851044 
	C409.898895,260.982483 409.231873,265.107361 409.183105,269.239166 
	C409.146790,272.317780 407.481750,273.543030 404.930603,274.523865 
	C381.693665,283.457764 359.990723,295.289215 339.472595,309.344879 
	C338.134033,310.261841 336.689728,311.024475 335.459595,311.760254 
	C331.380585,305.012207 327.205109,298.736908 323.715332,292.101013 
	C321.518555,287.923889 326.554962,287.804993 328.608337,285.634033 
z"/>
<path fill="#121D26" opacity="1.000000" stroke="none" 
	d="
M666.178711,778.739136 
	C663.151917,773.181030 660.301453,767.947083 657.226440,762.300720 
	C662.172180,759.000977 667.246887,755.981445 671.914429,752.427246 
	C682.652222,744.250916 693.197144,735.820984 703.807983,727.478333 
	C706.141724,725.643433 708.432861,723.753784 710.728455,721.871033 
	C712.820129,720.155518 714.496643,720.044434 716.741211,722.122314 
	C721.309570,726.351318 726.265930,730.161133 731.469116,734.481384 
	C713.665344,754.956909 691.841064,769.263916 669.826782,784.565735 
	C668.528564,782.508118 667.441833,780.785706 666.178711,778.739136 
z"/>
<path fill="#121D26" opacity="1.000000" stroke="none" 
	d="
M597.223633,248.151520 
	C598.001587,247.209488 599.107361,246.013824 599.645386,246.230148 
	C609.538696,250.208344 619.364075,254.355484 629.404541,258.550781 
	C624.575256,266.113800 620.467590,272.546753 616.026123,279.502319 
	C611.517883,277.574890 606.431885,275.287689 601.253296,273.234131 
	C598.681885,272.214447 597.937683,270.613556 597.931946,267.914581 
	C597.918274,261.460999 597.526428,255.008255 597.223633,248.151520 
z"/>
<path fill="#62696E" opacity="1.000000" stroke="none" 
	d="
M291.601837,460.271851 
	C291.925751,499.287506 291.863800,538.491272 291.849304,578.126465 
	C291.603668,577.472839 291.055878,576.388245 291.054352,575.302795 
	C291.001709,537.512939 290.999695,499.723022 291.001343,461.933105 
	C291.001373,461.442078 291.141327,460.951019 291.601837,460.271851 
z"/>
<path fill="#62696E" opacity="1.000000" stroke="none" 
	d="
M560.585327,675.972046 
	C562.002197,675.600159 563.875549,675.013184 565.750122,675.009216 
	C595.518860,674.945679 625.287842,674.956970 655.524292,674.974976 
	C654.992065,675.329407 653.992920,675.946777 652.992432,675.948853 
	C622.342468,676.012451 591.692444,676.015564 560.585327,675.972046 
z"/>
<path fill="#62696E" opacity="1.000000" stroke="none" 
	d="
M475.314087,738.247437 
	C475.581299,737.693604 476.210358,737.371521 476.839417,737.049377 
	C476.885925,738.368713 476.971497,739.687988 476.973175,741.007385 
	C477.007935,768.364136 477.033142,795.720825 477.028809,823.546753 
	C476.662048,822.365540 476.038330,820.715820 476.034546,819.064697 
	C475.976593,793.850708 476.005737,768.636536 475.989624,743.422363 
	C475.988556,741.774597 475.785217,740.126892 475.314087,738.247437 
z"/>
<path fill="#F9FAFB" opacity="1.000000" stroke="none" 
	d="
M226.789673,541.220764 
	C227.034439,531.693298 227.257736,521.718872 227.447815,511.743927 
	C227.459702,511.119476 227.211288,510.490082 226.742798,509.955322 
	C226.521301,520.289673 226.640991,530.531738 226.789673,541.220764 
z"/>
<path fill="#62696E" opacity="1.000000" stroke="none" 
	d="
M429.560120,675.988586 
	C433.385742,675.611023 437.666412,675.215637 441.956207,675.006714 
	C445.224213,674.847656 448.508362,674.825989 451.774323,674.978882 
	C452.449219,675.010437 453.075378,676.083130 453.355896,676.852905 
	C446.324554,676.690735 439.661621,676.343750 432.997589,676.020935 
	C432.007568,675.972961 431.012085,676.038147 429.560120,675.988586 
z"/>
<path fill="#FBFCFD" opacity="1.000000" stroke="none" 
	d="
M479.578552,637.346802 
	C433.617950,624.614441 405.802521,595.228577 396.512970,548.860962 
	C387.573822,504.242401 409.405212,456.786407 448.539764,434.572998 
	C509.782776,399.810455 587.952881,429.944214 608.316650,496.165253 
	C627.459106,558.414673 590.323120,623.131531 527.031616,637.455627 
	C511.436493,640.985046 495.663788,641.099854 479.578552,637.346802 
M440.572601,581.900269 
	C460.955902,606.228455 486.960052,616.997131 518.226318,611.355591 
	C563.889099,603.116455 592.959045,559.713684 583.882690,513.589905 
	C577.934998,483.365509 559.697449,462.325958 530.664307,451.974426 
	C501.313690,441.509674 473.884003,447.042786 450.332184,467.064697 
	C416.566010,495.770081 412.606689,544.919250 440.572601,581.900269 
z"/>
<path fill="#FBFCFD" opacity="1.000000" stroke="none" 
	d="
M675.921753,440.073792 
	C685.234070,449.638184 688.374512,460.447479 683.496704,472.751862 
	C678.937012,484.253632 670.147278,490.977905 657.818176,491.990265 
	C644.244873,493.104767 631.637634,484.002045 627.340210,470.865387 
	C623.289795,458.483612 628.440491,444.313049 639.738953,436.754150 
	C650.851990,429.319305 664.622620,430.499298 675.921753,440.073792 
M650.987793,470.872528 
	C657.660400,475.035614 666.634216,469.655792 665.496887,461.635773 
	C664.838623,456.993927 661.964355,454.115845 657.396729,453.351898 
	C652.944763,452.607269 649.607300,454.749939 647.508667,458.549713 
	C644.912476,463.250488 646.469543,467.163635 650.987793,470.872528 
z"/>
<path fill="#F9FAFB" opacity="1.000000" stroke="none" 
	d="
M338.936859,456.714417 
	C336.988739,459.811157 335.647156,463.554321 333.042908,464.962646 
	C327.280396,468.078918 320.778137,463.732330 320.972839,457.173035 
	C321.407684,442.521606 326.730682,429.996094 338.420227,420.712036 
	C340.564728,419.008911 343.266449,417.750458 345.913177,416.996643 
	C349.913422,415.857300 353.584778,416.843079 355.799347,420.738007 
	C358.044067,424.685974 357.238953,428.450958 354.454498,431.805298 
	C353.518494,432.932800 352.269958,433.865509 351.017975,434.655365 
	C343.043518,439.686096 339.256104,447.010284 338.936859,456.714417 
z"/>


<path fill="#121D26" opacity="1.000000" stroke="none" 
	d="
M440.349243,581.619263 
	C412.606689,544.919250 416.566010,495.770081 450.332184,467.064697 
	C473.884003,447.042786 501.313690,441.509674 530.664307,451.974426 
	C559.697449,462.325958 577.934998,483.365509 583.882690,513.589905 
	C592.959045,559.713684 563.889099,603.116455 518.226318,611.355591 
	C486.960052,616.997131 460.955902,606.228455 440.349243,581.619263 
M537.632324,531.992920 
	C535.391968,554.187927 514.994324,565.986389 499.979156,564.378479 
	C493.379028,563.671753 490.273987,566.576050 489.816956,572.936279 
	C489.366211,579.209045 492.637054,583.198181 498.796265,583.887512 
	C533.513794,587.773132 565.032288,550.097839 554.714233,516.800537 
	C553.585571,513.158020 551.242432,509.568298 548.576172,506.811340 
	C545.549927,503.682220 541.337830,503.573456 537.591736,506.149292 
	C533.800781,508.755951 533.138123,512.097961 534.665283,516.614685 
	C536.237610,521.264832 536.699585,526.290283 537.632324,531.992920 
M460.877380,498.411621 
	C459.536682,500.707245 457.977142,502.904510 456.893555,505.315674 
	C452.391174,515.333862 449.444275,525.688416 452.073639,536.752441 
	C453.342773,542.092773 457.271210,544.271240 462.676727,543.351624 
	C467.833679,542.474243 470.297791,539.308105 470.226624,533.918762 
	C470.182861,530.606445 469.857361,527.182617 470.535706,523.995605 
	C473.793518,508.689850 483.805542,499.336761 499.231567,496.735229 
	C506.671173,495.480530 508.961029,492.217072 507.858337,484.440521 
	C506.942535,477.981689 503.977325,475.931091 496.399933,477.047180 
	C481.899139,479.183105 470.076263,485.984039 460.877380,498.411621 
z"/>
<path fill="#121D26" opacity="1.000000" stroke="none" 
	d="
M650.668213,470.646851 
	C646.469543,467.163635 644.912476,463.250488 647.508667,458.549713 
	C649.607300,454.749939 652.944763,452.607269 657.396729,453.351898 
	C661.964355,454.115845 664.838623,456.993927 665.496887,461.635773 
	C666.634216,469.655792 657.660400,475.035614 650.668213,470.646851 
z"/>
<path fill="#F9FAFB" opacity="1.000000" stroke="none" 
	d="
M537.639893,531.572266 
	C536.699585,526.290283 536.237610,521.264832 534.665283,516.614685 
	C533.138123,512.097961 533.800781,508.755951 537.591736,506.149292 
	C541.337830,503.573456 545.549927,503.682220 548.576172,506.811340 
	C551.242432,509.568298 553.585571,513.158020 554.714233,516.800537 
	C565.032288,550.097839 533.513794,587.773132 498.796265,583.887512 
	C492.637054,583.198181 489.366211,579.209045 489.816956,572.936279 
	C490.273987,566.576050 493.379028,563.671753 499.979156,564.378479 
	C514.994324,565.986389 535.391968,554.187927 537.639893,531.572266 
z"/>
<path fill="#F9FAFB" opacity="1.000000" stroke="none" 
	d="
M461.063843,498.104309 
	C470.076263,485.984039 481.899139,479.183105 496.399933,477.047180 
	C503.977325,475.931091 506.942535,477.981689 507.858337,484.440521 
	C508.961029,492.217072 506.671173,495.480530 499.231567,496.735229 
	C483.805542,499.336761 473.793518,508.689850 470.535706,523.995605 
	C469.857361,527.182617 470.182861,530.606445 470.226624,533.918762 
	C470.297791,539.308105 467.833679,542.474243 462.676727,543.351624 
	C457.271210,544.271240 453.342773,542.092773 452.073639,536.752441 
	C449.444275,525.688416 452.391174,515.333862 456.893555,505.315674 
	C457.977142,502.904510 459.536682,500.707245 461.063843,498.104309 
z"/>
</svg>