<svg version="1.1" id="Layer_1" xmlns="http://www.w3.org/2000/svg" xmlns:xlink="http://www.w3.org/1999/xlink" x="0px" y="0px"
	 width="100%" viewBox="0 0 1617 1601" enable-background="new 0 0 1617 1601" xml:space="preserve">
<path fill="#216578" opacity="1.000000" stroke="none" 
	d="
M1028.615479,1548.726318 
	C1017.176819,1551.450317 1006.164124,1554.269287 995.020325,1556.403564 
	C981.915344,1558.913208 968.757263,1561.361694 955.512024,1562.867432 
	C938.866089,1564.759888 922.106323,1565.643555 905.401550,1567.033447 
	C903.155823,1567.220215 900.944336,1567.818970 898.315613,1568.300415 
	C898.315613,1281.451538 898.315613,995.042725 898.315613,708.316895 
	C964.318665,708.316895 1030.378784,708.316895 1096.923096,708.316895 
	C1096.923096,753.391174 1096.923096,798.453674 1096.923096,843.819946 
	C1158.681274,843.819946 1219.957397,843.819946 1281.616455,843.819946 
	C1281.616455,891.517700 1281.616455,938.911926 1281.616455,986.790344 
	C1220.408325,986.790344 1159.013306,986.790344 1097.309814,986.790344 
	C1097.309814,1089.675171 1097.309814,1192.077026 1097.309814,1295.589478 
	C1104.049438,1293.847778 1110.630005,1292.473145 1117.002441,1290.444336 
	C1145.187866,1281.470581 1170.828003,1267.549927 1193.552368,1248.726929 
	C1208.403320,1236.425659 1223.099609,1223.721924 1236.368530,1209.774658 
	C1258.802368,1186.193970 1277.958252,1159.898682 1294.944580,1132.111206 
	C1310.216064,1107.128906 1324.247559,1081.439087 1335.204346,1054.256592 
	C1344.582642,1030.990112 1354.272461,1007.735413 1361.639282,983.802856 
	C1369.442627,958.451843 1375.271729,932.435852 1380.806763,906.463928 
	C1384.570801,888.801941 1386.683960,870.757507 1388.893921,852.805176 
	C1390.479004,839.927063 1391.290161,826.932312 1391.922729,813.964111 
	C1392.601318,800.052307 1393.328491,786.086670 1392.827271,772.188110 
	C1392.241577,755.950134 1390.411011,739.754028 1389.011230,723.549194 
	C1387.129028,701.758606 1382.928711,680.326111 1376.831543,659.402222 
	C1370.636475,638.142212 1363.558594,617.097961 1355.867432,596.329529 
	C1350.302734,581.302734 1343.757812,566.549255 1336.503052,552.256104 
	C1319.700806,519.153503 1300.609009,487.387299 1277.587769,458.159698 
	C1267.154785,444.914307 1256.555542,431.769623 1245.426147,419.111816 
	C1234.606323,406.806000 1223.593994,394.555206 1211.612671,383.413177 
	C1195.993896,368.888641 1179.424194,355.377136 1163.105103,341.617828 
	C1142.761963,324.465851 1120.655640,309.677887 1097.621704,296.572205 
	C1077.064819,284.875885 1055.687012,274.463928 1034.065918,264.846588 
	C1016.653015,257.101166 998.610535,250.466095 980.344543,245.027374 
	C961.120667,239.303482 941.441956,234.796600 921.696228,231.228958 
	C904.345642,228.094101 886.672241,226.294067 869.060669,225.170868 
	C847.083740,223.769287 825.023010,223.141708 803.000488,223.185150 
	C788.379822,223.213974 773.698120,224.445999 759.157715,226.125717 
	C731.989624,229.264206 705.017700,233.502304 678.286011,239.669449 
	C644.384094,247.490814 611.402283,257.999023 579.436462,271.446991 
	C551.874695,283.042145 524.924377,296.142334 499.863892,312.660400 
	C482.092590,324.373962 464.182800,335.955383 447.150208,348.686646 
	C434.020142,358.500977 422.024109,369.861816 409.778687,380.819824 
	C401.625610,388.115753 393.325500,395.390625 386.135315,403.590485 
	C369.482697,422.581665 352.668060,441.522400 337.378082,461.594940 
	C315.367523,490.490173 296.957825,521.787537 281.797180,554.821167 
	C273.562836,572.763000 265.924133,591.052551 259.325256,609.649475 
	C252.948166,627.621277 247.657959,646.039734 242.993225,664.540039 
	C238.870331,680.891357 235.689651,697.538147 233.157684,714.216125 
	C230.726166,730.232422 228.931198,746.422058 228.173981,762.597168 
	C227.133408,784.825684 226.461517,807.144104 227.272171,829.364136 
	C227.945053,847.808716 230.778763,866.192383 233.024689,884.557922 
	C238.328430,927.927856 249.597488,969.890259 264.136017,1010.967163 
	C274.391357,1039.942261 287.468475,1067.746704 302.034058,1094.796997 
	C316.084412,1120.890747 332.442657,1145.557129 350.621887,1168.943359 
	C358.781372,1179.439941 367.840851,1189.252930 376.738464,1199.154419 
	C383.384338,1206.550171 389.908356,1214.189087 397.399261,1220.663818 
	C412.624878,1233.823853 428.221954,1246.586426 444.120789,1258.926758 
	C462.705658,1273.352173 483.463745,1284.256226 504.691162,1294.246216 
	C509.798126,1296.649658 515.039246,1298.768066 520.764038,1301.254395 
	C520.764038,1103.750977 520.764038,906.717102 520.764038,709.341797 
	C587.935364,709.341797 654.662170,709.341797 721.694763,709.341797 
	C721.694763,995.339478 721.694763,1281.396240 721.694763,1568.495483 
	C710.630005,1567.773804 699.654175,1567.176025 688.700500,1566.300171 
	C681.852539,1565.752686 674.999084,1565.032837 668.216370,1563.959229 
	C652.304626,1561.440430 636.190125,1559.642090 620.602417,1555.764526 
	C595.955872,1549.633911 571.434998,1542.764038 547.313416,1534.831299 
	C528.430237,1528.621216 510.000641,1520.851562 491.798004,1512.805420 
	C474.577606,1505.193481 457.363586,1497.263306 441.133911,1487.783203 
	C415.211121,1472.640869 389.707001,1456.692383 364.793549,1439.942993 
	C348.036377,1428.677124 332.340942,1415.763672 316.662079,1402.984375 
	C304.419617,1393.005981 292.755402,1382.292114 281.162292,1371.550903 
	C269.956726,1361.168945 258.521881,1350.916016 248.344955,1339.568604 
	C230.930176,1320.150879 213.836533,1300.381470 197.701447,1279.898560 
	C183.416885,1261.764771 170.085358,1242.813110 157.334518,1223.559326 
	C146.858963,1207.741089 137.385559,1191.203369 128.328125,1174.517578 
	C119.180817,1157.666382 110.622955,1140.455444 102.643646,1123.019043 
	C88.812866,1092.796143 77.132927,1061.678101 68.178047,1029.676514 
	C61.676315,1006.441528 56.054493,982.916809 51.159519,959.289368 
	C47.231873,940.331299 44.573677,921.077515 42.122128,901.856689 
	C40.149990,886.394531 39.177937,870.796387 38.057716,855.237244 
	C37.404526,846.164917 37.311314,837.051331 37.004814,827.955017 
	C36.647835,817.360352 35.909943,806.756714 36.100498,796.170715 
	C36.377071,780.806030 37.047272,765.433960 38.093220,750.102112 
	C39.007778,736.696228 40.004539,723.233337 42.148972,709.987366 
	C46.305389,684.313416 50.396526,658.569092 56.188396,633.236572 
	C62.063660,607.539246 68.947639,581.967529 77.259544,556.962341 
	C85.264900,532.879395 95.136452,509.366791 105.128525,486.005890 
	C120.106789,450.987488 138.831268,417.946381 159.423218,385.891937 
	C174.683929,362.136383 191.002151,339.201630 209.068024,317.544708 
	C220.762955,303.525116 232.938690,289.893799 245.222443,276.382538 
	C254.151901,266.560760 263.135895,256.698303 272.938477,247.780548 
	C289.952362,232.302444 307.126007,216.919434 325.145386,202.649094 
	C344.277313,187.497696 364.095184,173.130493 384.321259,159.468643 
	C400.305054,148.672287 417.139832,139.066635 434.004913,129.664429 
	C449.464691,121.045685 465.180267,112.761658 481.309662,105.499542 
	C501.529877,96.395569 522.115540,88.031967 542.853577,80.166489 
	C572.263550,69.011963 602.521423,60.456940 633.182068,53.505127 
	C649.654236,49.770317 666.321655,46.806084 682.997314,44.084583 
	C699.746033,41.351154 716.608032,39.303501 733.434753,37.062691 
	C737.666626,36.499134 741.948059,36.247200 746.215759,36.026447 
	C754.140503,35.616528 762.068909,35.177040 770.000977,35.030010 
	C792.594543,34.611210 815.203125,33.731976 837.781982,34.194294 
	C855.182190,34.550575 872.552979,36.582779 889.924194,38.022884 
	C900.050842,38.862408 910.210022,39.614086 920.252197,41.098034 
	C936.027283,43.429127 951.866150,45.676609 967.406372,49.168472 
	C991.422852,54.564930 1015.490906,60.058342 1039.018066,67.216454 
	C1064.230835,74.887383 1089.105469,83.866402 1113.631592,93.533035 
	C1132.179688,100.843483 1150.240234,109.562531 1167.995728,118.672394 
	C1195.465942,132.766754 1222.371948,147.982178 1247.508057,165.992462 
	C1266.446289,179.561905 1284.971802,193.723160 1303.404053,207.979126 
	C1328.866089,227.672211 1351.682739,250.308655 1373.812378,273.563995 
	C1386.473389,286.869110 1398.383545,300.973450 1409.721680,315.431671 
	C1424.595581,334.398682 1439.402954,353.518860 1452.702148,373.591309 
	C1466.130859,393.859131 1478.605713,414.891052 1489.814087,436.463348 
	C1502.970459,461.784851 1515.603027,487.539032 1526.082520,514.046509 
	C1536.890869,541.385986 1545.374390,569.695374 1553.846436,597.889526 
	C1559.434692,616.485840 1563.584229,635.547058 1567.658203,654.554443 
	C1570.419556,667.437561 1572.044800,680.571777 1573.969971,693.624390 
	C1575.780518,705.900879 1577.545532,718.192627 1578.902832,730.524719 
	C1579.946289,740.007141 1580.579956,749.552917 1580.948364,759.087769 
	C1581.779663,780.605530 1582.764404,802.132141 1582.856323,823.658691 
	C1582.923340,839.346436 1582.136230,855.078003 1580.872314,870.720764 
	C1579.396118,888.992188 1577.599731,907.281189 1574.850708,925.396912 
	C1569.783447,958.790039 1563.457397,991.992798 1553.227051,1024.244385 
	C1545.203979,1049.537231 1536.983276,1074.815796 1527.479614,1099.574585 
	C1520.049927,1118.930542 1511.172729,1137.812256 1501.768433,1156.309937 
	C1486.671875,1186.004639 1470.048462,1214.916992 1450.831543,1242.157593 
	C1437.488281,1261.071777 1423.195801,1279.337891 1408.835327,1297.504639 
	C1400.279907,1308.327393 1391.085571,1318.692749 1381.619385,1328.737061 
	C1367.256104,1343.977539 1352.834717,1359.212280 1337.632812,1373.598511 
	C1324.654053,1385.881104 1310.569702,1396.999023 1296.923706,1408.572144 
	C1274.762329,1427.367065 1251.168823,1444.247314 1226.617798,1459.716675 
	C1210.145630,1470.095581 1193.323853,1479.994629 1176.166748,1489.190918 
	C1158.417847,1498.704346 1140.314575,1507.647827 1121.919312,1515.836426 
	C1105.968872,1522.937012 1089.533813,1529.033447 1073.051147,1534.828979 
	C1058.550293,1539.927856 1043.686768,1543.995361 1028.615479,1548.726318 
z"/>
<path fill="#63BE62" opacity="1.000000" stroke="none" 
	d="
M520.280762,481.334259 
	C536.773621,452.329224 560.818298,434.254303 593.137207,426.861298 
	C606.563904,423.789948 620.085510,423.197540 633.541992,424.191010 
	C656.332520,425.873627 677.227417,433.294830 695.363708,447.788971 
	C713.489563,462.274780 726.113403,480.370758 733.247375,502.476746 
	C738.335815,518.244202 740.058411,534.425720 738.844482,550.742737 
	C737.138184,573.676636 729.995056,594.930725 715.846497,613.410156 
	C703.541687,629.481445 687.632996,640.723877 668.796326,647.979919 
	C650.488159,655.032410 631.424011,657.151245 612.060303,655.893677 
	C588.756409,654.380127 566.923828,647.631653 548.129333,633.431396 
	C527.975037,618.203735 515.377747,597.682739 510.157990,573.037292 
	C507.891846,562.337646 506.242584,551.277100 506.234955,540.379028 
	C506.220612,519.870728 510.447144,500.043579 520.280762,481.334259 
z"/>
<path fill="#63BE62" opacity="1.000000" stroke="none" 
	d="
M1019.702881,654.948181 
	C1008.493469,655.323242 997.702454,656.317200 986.972046,655.866333 
	C963.124329,654.864441 941.567688,647.143494 922.677246,632.231628 
	C902.834351,616.567871 890.043030,596.359070 884.533386,571.877869 
	C876.670288,536.939697 880.707397,503.577179 901.009827,473.373505 
	C918.498169,447.356232 942.992737,431.225677 974.010071,426.194061 
	C985.835083,424.275787 998.132751,423.370636 1010.041931,424.277344 
	C1033.123291,426.034729 1054.141113,434.009155 1072.444702,448.819916 
	C1094.424683,466.605652 1107.460449,489.804138 1111.622681,517.156128 
	C1115.939453,545.524963 1113.727295,573.743225 1099.625366,599.712097 
	C1084.252441,628.021484 1060.333618,645.322266 1029.233887,652.979431 
	C1026.229004,653.719177 1023.178223,654.271912 1019.702881,654.948181 
z"/>
<path fill="#206579" opacity="1.000000" stroke="none" 
	d="
M1305.943726,150.552216 
	C1314.182373,149.613510 1321.971680,149.259521 1328.666504,154.900864 
	C1333.472534,158.950607 1336.510742,163.791107 1337.002197,170.123611 
	C1337.775879,180.092972 1335.426025,188.693420 1326.266235,194.196640 
	C1311.976074,202.782150 1292.803223,195.779480 1289.017212,179.434586 
	C1285.907227,166.008820 1292.759033,154.242050 1305.943726,150.552216 
M1305.237061,188.678253 
	C1310.758667,190.330124 1316.252319,193.623672 1322.593384,188.920746 
	C1323.381714,187.908661 1324.170166,186.896561 1325.292603,185.246765 
	C1330.915039,181.776367 1330.106689,176.119629 1329.949219,170.859085 
	C1329.666870,161.432068 1319.294678,154.030685 1310.196899,155.827164 
	C1300.903442,157.662292 1296.896240,163.865631 1295.089233,172.167130 
	C1293.750732,178.316498 1299.427856,187.050156 1304.993408,188.010361 
	C1304.993408,188.010361 1304.940186,187.968643 1305.237061,188.678253 
z"/>
<path fill="#FFFFFF" opacity="1.000000" stroke="none" 
	d="
M1305.040771,188.058655 
	C1299.427856,187.050156 1293.750732,178.316498 1295.089233,172.167130 
	C1296.896240,163.865631 1300.903442,157.662292 1310.196899,155.827164 
	C1319.294678,154.030685 1329.666870,161.432068 1329.949219,170.859085 
	C1330.106689,176.119629 1330.915039,181.776367 1324.748169,185.606430 
	C1323.154907,181.853882 1322.106079,177.741669 1321.148315,173.986710 
	C1322.031372,171.875977 1323.840698,169.534866 1323.779785,167.243362 
	C1323.682129,163.557434 1320.522461,161.461029 1317.148682,161.226257 
	C1312.524658,160.904495 1307.839844,161.453323 1303.000000,161.635895 
	C1303.000000,166.474167 1302.739746,170.311813 1303.066284,174.098877 
	C1303.469360,178.774124 1304.360474,183.407303 1305.040771,188.058655 
z"/>
<path fill="#206579" opacity="1.000000" stroke="none" 
	d="
M1305.017090,188.034515 
	C1304.360474,183.407303 1303.469360,178.774124 1303.066284,174.098877 
	C1302.739746,170.311813 1303.000000,166.474167 1303.000000,161.635895 
	C1307.839844,161.453323 1312.524658,160.904495 1317.148682,161.226257 
	C1320.522461,161.461029 1323.682129,163.557434 1323.779785,167.243362 
	C1323.840698,169.534866 1322.031372,171.875977 1321.148315,173.986710 
	C1322.106079,177.741669 1323.154907,181.853882 1324.581055,185.925278 
	C1324.170166,186.896561 1323.381714,187.908661 1322.282227,188.566193 
	C1316.796265,186.074631 1316.609985,178.426315 1309.824463,176.467056 
	C1309.824463,180.991608 1309.824463,184.395798 1309.824463,187.268341 
	C1307.864380,187.549377 1306.402344,187.759003 1304.940186,187.968643 
	C1304.940186,187.968643 1304.993408,188.010361 1305.017090,188.034515 
M1315.884766,170.648041 
	C1317.114380,166.566330 1315.698120,165.560898 1310.296387,166.613892 
	C1310.296387,168.386368 1310.296387,170.125793 1310.296387,172.365021 
	C1312.204346,171.907318 1313.736572,171.539795 1315.884766,170.648041 
z"/>
<path fill="#FFFFFF" opacity="1.000000" stroke="none" 
	d="
M1305.088623,188.323456 
	C1306.402344,187.759003 1307.864380,187.549377 1309.824463,187.268341 
	C1309.824463,184.395798 1309.824463,180.991608 1309.824463,176.467056 
	C1316.609985,178.426315 1316.796265,186.074631 1321.926147,188.586487 
	C1316.252319,193.623672 1310.758667,190.330124 1305.088623,188.323456 
z"/>
<path fill="#FFFFFF" opacity="1.000000" stroke="none" 
	d="
M1315.576660,170.910156 
	C1313.736572,171.539795 1312.204346,171.907318 1310.296387,172.365021 
	C1310.296387,170.125793 1310.296387,168.386368 1310.296387,166.613892 
	C1315.698120,165.560898 1317.114380,166.566330 1315.576660,170.910156 
z"/>
</svg>