<svg version="1.1" id="Layer_1" xmlns="http://www.w3.org/2000/svg" xmlns:xlink="http://www.w3.org/1999/xlink" x="0px" y="0px"
	 width="100%" viewBox="0 0 1024 1024" enable-background="new 0 0 1024 1024" xml:space="preserve">

<path fill="#FEAD48" opacity="1.000000" stroke="none" 
	d="
M637.832642,538.896851 
	C644.359741,543.679871 651.067078,547.729065 659.353088,549.234314 
	C671.609802,551.460815 681.502441,546.706177 691.234314,540.412109 
	C695.696472,537.526184 700.246033,534.603088 705.120972,532.573303 
	C710.713013,530.244934 715.315247,532.801025 718.916260,538.051880 
	C717.804077,540.503784 716.721802,542.321838 715.484558,544.027527 
	C711.345215,549.733887 707.638367,555.070984 707.774719,563.064636 
	C708.320129,595.031799 707.940796,627.013977 708.092590,658.989685 
	C708.113586,663.424316 706.965820,665.089050 702.221924,665.084839 
	C575.149231,664.971008 448.076447,664.993408 321.086487,664.630005 
	C323.351532,663.178711 325.491180,661.254272 327.723114,661.140503 
	C340.011108,660.514160 352.322357,660.350464 364.623627,659.965332 
	C365.935059,659.924255 367.233765,659.477051 368.538391,659.218201 
	C368.521851,658.698242 368.505341,658.178223 368.488831,657.658203 
	C366.508972,657.438110 364.358582,657.638611 362.581512,656.918274 
	C357.440643,654.834229 352.263031,652.696228 347.508179,649.888000 
	C345.978668,648.984680 345.807739,645.888672 344.839691,643.880371 
	C344.374023,642.914307 343.552948,641.454651 342.803040,641.397522 
	C337.569611,640.999146 336.876343,637.543945 336.773224,633.351562 
	C336.695831,630.207397 336.067017,627.073486 336.038818,623.931824 
	C335.960205,615.158997 335.915375,606.378296 336.269073,597.617371 
	C336.319519,596.367737 338.491730,594.933777 339.965607,594.068054 
	C343.004456,592.283081 346.339264,590.998352 349.359528,589.186462 
	C353.036804,586.980347 355.191589,581.637146 360.608643,583.146118 
	C364.430206,584.210510 367.300903,584.584778 369.540222,580.362183 
	C370.151978,579.208740 372.972595,579.063904 374.829163,578.771301 
	C377.712799,578.316895 380.686920,578.363647 383.534576,577.773132 
	C386.837219,577.088257 389.992493,575.495728 393.306366,575.110046 
	C397.706757,574.597839 401.580383,568.405518 399.309845,564.575256 
	C398.883667,563.856384 397.684784,563.112183 396.897766,563.167419 
	C390.773132,563.597351 390.866882,559.652832 390.975067,555.338196 
	C391.077972,551.235596 393.640320,550.940491 396.732849,550.987122 
	C399.818604,551.033691 402.985382,550.746704 403.004364,555.304077 
	C403.012939,557.358154 403.323608,559.411072 403.500519,561.504028 
	C407.069153,560.556274 409.967072,559.379578 412.952789,559.081177 
	C418.608734,558.515808 421.956757,555.261963 423.192810,549.618530 
	C423.686127,547.365967 425.815308,545.419556 427.373047,543.472290 
	C428.274841,542.344971 429.521271,541.493347 430.612549,540.517578 
	C429.145813,540.012573 427.712555,539.293945 426.203766,539.057739 
	C424.409363,538.776917 422.171692,539.540894 420.805420,538.720642 
	C418.620911,537.409058 416.295776,535.469360 415.324280,533.233032 
	C414.271027,530.808350 414.699310,527.740051 414.496338,525.142273 
	C414.799774,524.820007 414.891785,524.655457 415.031494,524.583557 
	C421.443054,521.281677 430.436035,522.205383 433.458099,513.299255 
	C433.620911,512.819519 434.498810,512.380920 435.101715,512.284180 
	C439.415588,511.592407 440.192139,508.670593 440.026154,504.947052 
	C439.892670,501.953247 440.781616,498.678711 439.856079,495.998657 
	C436.869080,487.348969 449.438568,488.584747 448.715637,481.516266 
	C448.674194,481.111237 450.642731,480.611389 451.546906,479.973053 
	C452.902954,479.015625 454.144745,477.896332 455.435120,476.845856 
	C454.207916,475.906311 453.084442,474.387146 451.732361,474.145233 
	C448.712646,473.604858 447.993866,471.884949 447.989594,469.231995 
	C447.985168,466.494324 448.371765,464.388397 451.769897,463.846985 
	C453.102814,463.634613 454.219971,462.068024 455.435394,461.118164 
	C454.299164,460.098175 453.047607,459.178253 452.054932,458.033722 
	C450.704956,456.477295 448.949799,454.877136 448.560883,453.042908 
	C448.355225,452.072784 450.714020,449.498169 451.845825,449.539612 
	C453.827393,449.612122 455.901276,450.928650 457.660156,452.128906 
	C459.061981,453.085480 460.415497,455.911469 461.157043,455.698853 
	C463.356018,455.068237 465.241730,453.345398 466.334045,452.640594 
	C464.142578,448.254883 462.570587,445.108887 461.248657,441.791199 
	C461.996643,440.782806 462.494568,439.946075 463.002197,439.047546 
	C463.011932,438.985779 463.135529,439.005035 463.409058,438.952026 
	C464.052277,438.512207 464.421997,438.125336 464.894623,437.867432 
	C464.997559,437.996338 464.786377,437.742767 465.119202,437.748901 
	C466.206635,437.069916 466.961243,436.384857 467.781372,435.846313 
	C467.846863,435.992828 467.733490,435.695770 467.961426,435.658386 
	C468.489716,435.506134 468.713135,435.305573 468.882935,434.940491 
	C468.906250,434.861725 469.065918,434.900604 469.417236,434.913940 
	C471.429291,433.851074 473.090027,432.774902 474.802368,431.824738 
	C474.853943,431.950714 474.777130,431.690063 475.089813,431.708344 
	C475.884552,431.370819 476.366638,431.015045 476.841370,430.703247 
	C476.834045,430.747223 476.749603,430.718445 477.103027,430.779602 
	C478.605865,430.215240 479.755310,429.589752 480.918274,428.932526 
	C480.931763,428.900757 480.997284,428.922455 481.409058,428.957275 
	C493.887726,426.084717 505.995392,424.194672 518.348755,427.527557 
	C518.384827,427.526825 518.414673,427.592621 518.461426,427.928467 
	C520.330444,429.791351 522.152588,431.318359 524.066528,432.870575 
	C524.158325,432.895782 524.143860,433.085602 524.129639,433.466095 
	C524.426697,438.890808 524.737976,443.935059 525.061401,449.009674 
	C525.073547,449.040070 525.013428,449.065979 524.799805,449.240112 
	C524.397339,449.918915 524.208374,450.423584 524.031128,450.967712 
	C524.042725,451.007233 523.964294,451.032318 523.655273,451.123779 
	C522.926147,452.128418 522.506042,453.041565 522.095703,454.013428 
	C522.105408,454.072113 521.989197,454.097687 521.677551,454.160553 
	C520.598816,455.437744 519.831726,456.652039 518.969360,458.133728 
	C518.592346,458.643768 518.310547,458.886444 517.829346,459.246643 
	C517.386841,459.575775 517.238281,459.840515 517.113037,460.110291 
	C517.041626,460.062164 517.166260,460.181213 516.954224,460.302185 
	C516.484680,460.648041 516.333069,460.929962 516.247559,461.256683 
	C516.207764,461.244507 516.249268,461.316711 515.921082,461.335938 
	C515.073914,462.215729 514.554871,463.076294 514.042053,463.987549 
	C514.048218,464.038239 513.947327,464.053558 513.754089,464.174072 
	C513.326111,464.505157 513.176819,464.764832 513.106384,465.089417 
	C513.099854,465.105194 513.074036,465.127625 512.732544,465.178925 
	C511.827820,466.284363 511.264496,467.338501 510.701447,468.495392 
	C510.701721,468.598145 510.512238,468.677826 510.165344,468.668091 
	C508.595093,470.768921 507.371735,472.879456 506.162445,475.058289 
	C506.176483,475.126556 506.042419,475.164764 505.824371,475.300507 
	C505.415924,475.898956 505.225525,476.361694 505.054840,476.916260 
	C505.074524,477.008087 504.905121,477.089294 504.739868,477.236389 
	C504.381012,477.625824 504.294647,477.901764 504.316406,478.244080 
	C504.317383,478.276855 504.255524,478.298645 503.929016,478.400940 
	C502.802917,480.372528 502.003357,482.241852 501.205383,484.134766 
	C501.207001,484.158386 501.169189,484.186768 500.936096,484.364868 
	C500.568451,485.096680 500.433868,485.650391 500.172058,486.162903 
	C500.044861,486.121704 500.290344,486.229218 499.986938,486.392578 
	C493.375763,497.013824 492.013733,508.555786 491.992249,520.469543 
	C491.984802,524.606323 493.559967,526.031067 497.602661,525.965515 
	C507.732544,525.801208 517.867249,525.930847 527.968384,526.313354 
	C527.291077,527.582336 526.750183,528.586243 525.975342,529.354004 
	C524.807312,530.511475 522.233704,531.999878 522.426147,532.481873 
	C523.320312,534.721741 524.728516,536.878662 526.382202,538.668457 
	C530.179932,542.778748 535.167908,543.368774 540.501099,543.160645 
	C542.363037,543.087891 544.720825,543.749329 546.070007,544.952576 
	C549.064453,547.623047 550.700867,545.866882 552.703735,543.844788 
	C554.398132,542.134033 556.172363,540.411377 558.189636,539.133301 
	C561.049316,537.321533 564.202820,535.980774 567.156677,534.307861 
	C569.021667,533.251709 570.620422,531.415222 572.583313,530.940491 
	C574.149292,530.561707 577.208801,531.253052 577.627136,532.277344 
	C578.547485,534.530701 578.279053,537.107849 574.833618,538.059692 
	C573.240295,538.499939 571.987366,540.172058 570.580078,541.285645 
	C572.353149,542.188599 574.086548,543.187439 575.919373,543.946167 
	C576.629822,544.240234 577.567444,543.950806 578.397888,543.995544 
	C585.092285,544.356445 583.655151,534.126343 590.576782,534.559692 
	C590.967590,534.584106 591.776794,532.336609 591.925415,531.091003 
	C592.811584,523.663574 591.521729,522.354309 583.067200,522.011658 
	C580.578064,521.910706 578.273987,521.730957 578.072449,518.502136 
	C577.892334,515.616577 577.732727,512.821167 581.240540,511.468750 
	C588.446960,508.690308 594.290649,504.666534 595.307251,496.072845 
	C595.555237,493.976898 596.632324,491.504272 599.651855,492.907654 
	C602.793152,494.367706 604.268738,492.661011 604.692688,490.155518 
	C605.681946,484.308228 606.553650,478.408630 606.903503,472.496521 
	C607.153564,468.270233 608.362793,465.728485 612.983337,466.395264 
	C612.880127,467.280609 612.859619,467.791626 612.710815,468.262054 
	C607.839050,483.662811 607.205994,499.313385 611.345764,514.843994 
	C612.422791,518.884399 615.966797,522.716553 619.304382,525.554626 
	C621.724426,527.612427 625.672729,527.872986 628.939575,528.934998 
	C628.939575,528.934998 629.076599,528.956177 629.122070,529.291321 
	C629.564880,529.963196 629.962219,530.299927 630.359497,530.636658 
	C630.359497,530.636658 630.430481,530.641418 630.411865,530.978882 
	C630.913635,531.837463 631.433960,532.358582 631.954285,532.879700 
	C632.258057,533.115784 632.561768,533.351868 633.025513,534.106689 
	C633.578430,534.895447 633.971313,535.165466 634.364197,535.435486 
	C634.364197,535.435486 634.554565,535.457031 634.577576,535.844360 
	C635.186279,536.638611 635.771973,537.045654 636.357666,537.452637 
	C636.357666,537.452637 636.489563,537.466797 636.548218,537.784180 
	C637.015442,538.366699 637.424072,538.631775 637.832642,538.896851 
M553.516785,577.333923 
	C561.195740,584.448364 562.254456,593.952087 561.170837,603.257263 
	C560.120911,612.273254 560.037598,621.842957 554.495178,629.860596 
	C554.466736,629.901733 554.677979,630.108643 555.301514,630.921936 
	C557.638611,629.146057 559.792480,626.325806 562.447693,625.726379 
	C568.920044,624.265320 569.487122,619.990601 568.974915,614.828430 
	C568.562256,610.669556 569.879211,608.921875 574.450256,608.865356 
	C582.858154,608.761353 583.933411,607.287476 584.001770,598.683594 
	C584.009705,597.685364 583.718262,596.527344 584.123413,595.725098 
	C584.791687,594.401917 585.766357,593.138062 586.884827,592.161926 
	C588.254639,590.966431 589.905579,590.093079 591.434998,589.080444 
	C589.958374,588.024048 588.258728,587.170105 587.065979,585.856018 
	C585.798096,584.459045 584.229065,582.623779 584.233643,580.983948 
	C584.238281,579.347717 585.829041,577.534607 587.096313,576.135925 
	C588.286133,574.822632 589.961792,573.949585 591.423645,572.882812 
	C589.540894,571.923035 587.703735,570.249207 585.767639,570.125732 
	C576.811768,569.554626 576.260254,569.245728 576.035095,560.246094 
	C575.950073,556.847778 575.105408,554.536560 571.278137,553.826416 
	C570.053223,553.599121 569.054749,551.879211 568.061340,550.746826 
	C566.874817,549.394287 565.804993,547.939514 564.684570,546.528992 
	C563.790100,548.240112 562.799011,549.910278 562.048767,551.682434 
	C561.748352,552.392151 561.983276,553.326416 561.965820,554.158325 
	C561.878296,558.325378 558.302734,558.464722 555.604309,559.152954 
	C555.134888,559.272766 554.042664,556.173401 552.943848,554.795532 
	C551.499878,552.984802 549.764404,551.406555 548.154297,549.728333 
	C547.191101,552.154663 545.575439,554.573853 545.548523,557.010498 
	C545.535645,558.174438 548.383667,559.899109 550.210022,560.434937 
	C553.245178,561.325378 554.235229,562.546875 553.388000,565.769470 
	C552.508240,569.115601 552.338501,572.648499 551.280457,575.766663 
	C543.659546,565.408997 533.880798,558.556580 520.919434,556.519958 
	C497.479797,552.836792 474.162354,568.307617 469.047913,591.101562 
	C463.849426,614.270020 477.441833,637.564087 499.896973,643.969543 
	C523.627502,650.738708 549.147095,638.239685 556.873169,615.838867 
	C561.488586,602.457031 559.521912,589.604492 553.516785,577.333923 
z"/>
<path fill="#FFAD45" opacity="1.000000" stroke="none" 
	d="
M460.998566,441.962860 
	C462.570587,445.108887 464.142578,448.254883 466.334045,452.640594 
	C465.241730,453.345398 463.356018,455.068237 461.157043,455.698853 
	C460.415497,455.911469 459.061981,453.085480 457.660156,452.128906 
	C455.901276,450.928650 453.827393,449.612122 451.845825,449.539612 
	C450.714020,449.498169 448.355225,452.072784 448.560883,453.042908 
	C448.949799,454.877136 450.704956,456.477295 452.054932,458.033722 
	C453.047607,459.178253 454.299164,460.098175 455.435394,461.118164 
	C454.219971,462.068024 453.102814,463.634613 451.769897,463.846985 
	C448.371765,464.388397 447.985168,466.494324 447.989594,469.231995 
	C447.993866,471.884949 448.712646,473.604858 451.732361,474.145233 
	C453.084442,474.387146 454.207916,475.906311 455.435120,476.845856 
	C454.144745,477.896332 452.902954,479.015625 451.546906,479.973053 
	C450.642731,480.611389 448.674194,481.111237 448.715637,481.516266 
	C449.438568,488.584747 436.869080,487.348969 439.856079,495.998657 
	C440.781616,498.678711 439.892670,501.953247 440.026154,504.947052 
	C440.192139,508.670593 439.415588,511.592407 435.101715,512.284180 
	C434.498810,512.380920 433.620911,512.819519 433.458099,513.299255 
	C430.436035,522.205383 421.443054,521.281677 415.031494,524.583557 
	C414.891785,524.655457 414.799774,524.820007 414.496338,525.142273 
	C414.699310,527.740051 414.271027,530.808350 415.324280,533.233032 
	C416.295776,535.469360 418.620911,537.409058 420.805420,538.720642 
	C422.171692,539.540894 424.409363,538.776917 426.203766,539.057739 
	C427.712555,539.293945 429.145813,540.012573 430.612549,540.517578 
	C429.521271,541.493347 428.274841,542.344971 427.373047,543.472290 
	C425.815308,545.419556 423.686127,547.365967 423.192810,549.618530 
	C421.956757,555.261963 418.608734,558.515808 412.952789,559.081177 
	C409.967072,559.379578 407.069153,560.556274 403.500519,561.504028 
	C403.323608,559.411072 403.012939,557.358154 403.004364,555.304077 
	C402.985382,550.746704 399.818604,551.033691 396.732849,550.987122 
	C393.640320,550.940491 391.077972,551.235596 390.975067,555.338196 
	C390.866882,559.652832 390.773132,563.597351 396.897766,563.167419 
	C397.684784,563.112183 398.883667,563.856384 399.309845,564.575256 
	C401.580383,568.405518 397.706757,574.597839 393.306366,575.110046 
	C389.992493,575.495728 386.837219,577.088257 383.534576,577.773132 
	C380.686920,578.363647 377.712799,578.316895 374.829163,578.771301 
	C372.972595,579.063904 370.151978,579.208740 369.540222,580.362183 
	C367.300903,584.584778 364.430206,584.210510 360.608643,583.146118 
	C355.191589,581.637146 353.036804,586.980347 349.359528,589.186462 
	C346.339264,590.998352 343.004456,592.283081 339.965607,594.068054 
	C338.491730,594.933777 336.319519,596.367737 336.269073,597.617371 
	C335.915375,606.378296 335.960205,615.158997 336.038818,623.931824 
	C336.067017,627.073486 336.695831,630.207397 336.773224,633.351562 
	C336.876343,637.543945 337.569611,640.999146 342.803040,641.397522 
	C343.552948,641.454651 344.374023,642.914307 344.839691,643.880371 
	C345.807739,645.888672 345.978668,648.984680 347.508179,649.888000 
	C352.263031,652.696228 357.440643,654.834229 362.581512,656.918274 
	C364.358582,657.638611 366.508972,657.438110 368.488831,657.658203 
	C368.505341,658.178223 368.521851,658.698242 368.538391,659.218201 
	C367.233765,659.477051 365.935059,659.924255 364.623627,659.965332 
	C352.322357,660.350464 340.011108,660.514160 327.723114,661.140503 
	C325.491180,661.254272 323.351532,663.178711 320.759827,664.656616 
	C319.563171,665.364746 318.775940,665.683594 317.570312,666.001221 
	C313.684387,666.495667 312.139709,665.039856 311.497864,661.523987 
	C311.077972,659.223999 309.333130,657.165894 308.181763,654.999451 
	C308.129883,625.308655 308.078003,595.617920 308.427643,565.297607 
	C310.575958,561.628479 311.040802,558.686707 308.167908,555.999573 
	C308.120178,552.635925 308.072449,549.272278 308.461792,545.449158 
	C310.089478,544.342896 312.023529,543.945007 312.338226,543.004944 
	C313.515411,539.488525 314.162628,535.794678 315.008606,532.167358 
	C316.397797,532.119690 317.787018,532.071899 319.563232,532.465820 
	C320.414917,535.531982 320.595459,538.255737 321.463135,540.739563 
	C321.902954,541.998596 323.582794,542.824463 324.701965,543.846191 
	C325.511688,542.775452 326.298279,541.686157 327.139221,540.640564 
	C327.713806,539.926208 328.559784,538.609619 328.942444,538.722473 
	C329.912872,539.008545 331.068970,539.784546 331.449890,540.666870 
	C331.926453,541.770752 331.702545,543.177124 331.778534,544.413269 
	C338.586914,546.602722 345.048218,549.223022 351.762695,550.661865 
	C356.799042,551.740967 362.439453,552.415039 367.294586,551.202271 
	C371.585968,550.130371 375.027618,550.675598 378.772522,551.934265 
	C380.182037,552.407959 381.465698,553.295410 382.891846,553.672729 
	C386.720520,554.685791 388.600159,553.254944 387.729462,549.452271 
	C386.682434,544.879517 388.579803,541.900269 391.545166,538.882263 
	C396.653198,533.683533 401.546783,528.273315 406.486938,522.911865 
	C407.018494,522.334961 407.562958,521.505737 407.592377,520.773132 
	C407.791351,515.821350 407.853180,510.864105 407.959351,505.908600 
	C407.986267,504.534515 408.013214,503.160431 408.300415,501.042633 
	C408.733734,497.873535 408.906799,495.448120 409.488892,493.021240 
	C415.756866,492.743866 417.237732,491.662109 416.870361,485.927826 
	C416.472504,479.717865 416.093475,473.231598 414.014038,467.477325 
	C411.657928,460.957458 407.423370,455.116364 403.905212,448.663025 
	C393.543274,434.814270 379.830780,427.609039 362.633972,426.067749 
	C360.826477,426.342377 359.398773,426.644257 357.636871,426.930237 
	C355.874054,426.959412 354.445435,427.004578 352.621307,427.043365 
	C342.935272,429.301575 334.677185,433.520142 327.042603,439.331635 
	C321.535004,443.524048 317.165222,449.882782 309.171082,449.983643 
	C308.443909,441.326385 307.156097,432.673370 307.090088,424.011078 
	C306.850464,392.562042 307.083221,361.109589 306.961182,329.659119 
	C306.944672,325.410126 307.522552,321.808624 311.754517,318.999939 
	C312.528259,318.470795 312.759338,318.210205 312.990387,317.949615 
	C312.990387,317.949615 312.998016,318.001099 313.450195,318.005188 
	C361.845612,318.009491 409.788849,318.020386 457.732056,317.974609 
	C459.841858,317.972595 461.951141,317.452911 464.060669,317.174377 
	C469.636353,317.444977 475.209808,317.871704 480.788208,317.951050 
	C490.102722,318.083496 499.437561,318.348053 508.731995,317.898743 
	C518.198608,317.441101 525.253113,322.081207 532.010010,327.594238 
	C534.823914,329.890198 537.212463,332.707489 540.061401,335.801514 
	C540.579651,336.533539 540.830872,336.751709 541.082153,336.969849 
	C541.082153,336.969849 541.016968,336.981201 541.165894,337.150024 
	C541.524475,337.573151 541.770813,337.784912 542.053711,337.954102 
	C542.053711,337.954102 542.000000,337.997559 542.122620,338.163879 
	C542.393555,338.576141 542.577820,338.791260 542.798035,338.975525 
	C542.798035,338.975525 542.976929,339.429199 543.157104,339.873291 
	C543.547791,340.573975 543.793884,340.789948 544.075623,340.965363 
	C544.075623,340.965363 544.011658,340.952820 544.033447,341.319275 
	C545.600952,343.561401 546.835327,346.323059 548.797729,347.012360 
	C550.187927,347.500641 553.246216,345.636993 554.318054,344.006744 
	C555.559265,342.118805 555.440002,339.336426 555.911377,336.942352 
	C555.911377,336.942352 555.974487,336.937744 556.149048,336.806580 
	C556.578186,336.457550 556.792053,336.205200 556.965149,335.918335 
	C556.965149,335.918335 556.962219,335.994934 557.303345,335.913727 
	C561.957642,333.675659 566.304321,331.550232 566.929932,325.934082 
	C566.929932,325.934082 566.991211,325.982819 567.154358,325.829041 
	C567.569519,325.455414 567.785461,325.204468 567.965210,324.922424 
	C567.965210,324.922424 567.928772,324.925781 568.224426,324.869873 
	C569.006226,324.510529 569.492310,324.207031 569.978455,323.903564 
	C569.978455,323.903564 569.977112,323.971832 570.143250,323.859985 
	C570.566833,323.591125 570.793030,323.397614 570.987915,323.167542 
	C570.987915,323.167542 571.428528,323.016663 572.032349,323.073425 
	C576.016418,324.426788 579.795837,327.634583 581.588745,321.183777 
	C581.653076,320.952362 584.348145,320.859314 584.659546,321.386047 
	C586.619019,324.700684 589.140503,324.112213 592.017578,323.043640 
	C593.544128,322.476654 595.302917,321.890076 596.826782,322.132050 
	C598.542847,322.404510 600.112427,323.599457 601.745728,324.393188 
	C600.884216,326.053192 600.264404,327.910278 599.107117,329.329041 
	C597.149048,331.729614 594.343872,333.555176 592.813171,336.161713 
	C590.413208,340.248474 592.246094,343.588531 596.768494,343.922882 
	C603.833801,344.445282 608.171692,347.870575 609.441467,354.920105 
	C609.970093,357.855011 610.574158,360.762604 614.577881,359.961792 
	C618.106445,359.256012 623.278992,362.599701 624.519348,355.761383 
	C624.774170,354.356903 627.136719,352.646851 628.739685,352.387421 
	C630.076477,352.170959 632.904419,353.717926 633.040100,354.750824 
	C633.854492,360.950165 638.214294,360.075531 642.325256,360.009216 
	C645.322266,359.960846 648.322632,359.929810 651.317810,360.016632 
	C653.918884,360.092010 655.428284,359.480499 656.368347,356.533875 
	C656.945312,354.725616 659.813904,352.348114 661.404114,352.520874 
	C663.069885,352.701843 665.684937,355.592010 665.735596,357.359741 
	C666.103149,370.171661 666.074463,383.002960 665.747498,395.817352 
	C665.703552,397.539795 663.373047,400.475952 661.949524,400.570831 
	C660.149109,400.690796 658.122192,398.569794 656.329102,397.232849 
	C655.143982,396.349213 654.246216,394.376068 653.131104,394.306274 
	C652.076477,394.240234 650.376526,395.811951 649.892212,397.032959 
	C648.728821,399.965729 646.891418,401.678986 643.860474,400.752014 
	C642.416687,400.310425 640.181152,397.737030 640.375977,397.425751 
	C641.626953,395.426636 643.441223,393.776459 645.093323,392.033325 
	C646.008850,391.067352 647.859314,389.958099 647.710266,389.241486 
	C647.454224,388.010254 646.169067,386.584259 644.955383,386.031372 
	C639.646851,383.613190 638.247803,376.996185 632.685486,374.814178 
	C632.062134,374.569702 632.110352,372.355652 632.031189,371.043854 
	C631.921021,369.217987 632.320801,367.291992 631.863953,365.579132 
	C631.518433,364.283722 630.173828,363.254761 629.273865,362.107239 
	C628.170837,363.052185 626.365906,363.829346 626.092590,364.972595 
	C625.168640,368.837158 622.738586,370.025757 619.162354,370.004333 
	C614.666504,369.977386 610.147888,369.795288 605.687988,370.207855 
	C604.420654,370.325104 603.323303,372.279633 602.148010,373.391632 
	C603.318115,374.254547 604.397034,375.649292 605.677429,375.868713 
	C608.274475,376.313843 611.142639,375.605682 613.585632,376.372162 
	C615.271301,376.901031 617.401001,379.014648 617.550842,380.589539 
	C617.698486,382.142181 615.901184,384.938507 614.429443,385.364014 
	C611.450317,386.225372 609.861389,387.482086 609.486267,390.560760 
	C609.382812,391.410156 608.558167,392.431793 607.779297,392.896271 
	C602.973267,395.762421 602.573669,400.615845 602.030334,405.369690 
	C601.635925,408.821564 601.501221,412.302612 601.223877,415.768494 
	C600.841553,420.546173 600.116638,425.330231 600.242249,430.092987 
	C600.277222,431.419281 602.701721,433.646851 604.193115,433.792603 
	C608.975281,434.259918 613.838562,434.071075 618.661133,433.886475 
	C621.554504,433.775726 623.395752,432.422729 624.210022,429.195496 
	C624.683289,427.319824 626.574951,425.324188 628.353638,424.443024 
	C629.348267,423.950256 632.488525,425.330872 632.776917,426.383667 
	C633.368958,428.545349 633.466858,431.524139 632.376099,433.321777 
	C630.169983,436.957336 627.044128,440.036682 624.280579,443.331299 
	C623.024353,444.828949 622.010925,446.834167 620.399719,447.677002 
	C613.931213,451.060791 611.562195,456.698181 613.939453,464.280396 
	C613.595886,465.042511 613.301086,465.522278 613.006287,466.002014 
	C608.362793,465.728485 607.153564,468.270233 606.903503,472.496521 
	C606.553650,478.408630 605.681946,484.308228 604.692688,490.155518 
	C604.268738,492.661011 602.793152,494.367706 599.651855,492.907654 
	C596.632324,491.504272 595.555237,493.976898 595.307251,496.072845 
	C594.290649,504.666534 588.446960,508.690308 581.240540,511.468750 
	C577.732727,512.821167 577.892334,515.616577 578.072449,518.502136 
	C578.273987,521.730957 580.578064,521.910706 583.067200,522.011658 
	C591.521729,522.354309 592.811584,523.663574 591.925415,531.091003 
	C591.776794,532.336609 590.967590,534.584106 590.576782,534.559692 
	C583.655151,534.126343 585.092285,544.356445 578.397888,543.995544 
	C577.567444,543.950806 576.629822,544.240234 575.919373,543.946167 
	C574.086548,543.187439 572.353149,542.188599 570.580078,541.285645 
	C571.987366,540.172058 573.240295,538.499939 574.833618,538.059692 
	C578.279053,537.107849 578.547485,534.530701 577.627136,532.277344 
	C577.208801,531.253052 574.149292,530.561707 572.583313,530.940491 
	C570.620422,531.415222 569.021667,533.251709 567.156677,534.307861 
	C564.202820,535.980774 561.049316,537.321533 558.189636,539.133301 
	C556.172363,540.411377 554.398132,542.134033 552.703735,543.844788 
	C550.700867,545.866882 549.064453,547.623047 546.070007,544.952576 
	C544.720825,543.749329 542.363037,543.087891 540.501099,543.160645 
	C535.167908,543.368774 530.179932,542.778748 526.382202,538.668457 
	C524.728516,536.878662 523.320312,534.721741 522.426147,532.481873 
	C522.233704,531.999878 524.807312,530.511475 525.975342,529.354004 
	C526.750183,528.586243 527.291077,527.582336 528.400146,526.301697 
	C530.875122,525.884644 532.886719,525.849976 535.106079,526.124817 
	C538.951721,529.539185 540.453735,527.203003 540.830017,523.909119 
	C541.240784,520.313171 540.972351,516.639709 541.322876,512.975830 
	C542.277771,512.404358 542.909790,511.857056 543.541809,511.309753 
	C543.332886,511.105194 543.123962,510.900635 542.915039,510.696045 
	C542.276672,511.464020 541.638367,512.231995 540.671143,512.943298 
	C539.503906,512.567139 538.665466,512.247620 537.835449,511.533630 
	C539.188354,506.463135 540.532959,501.787201 541.858459,497.014923 
	C541.839294,496.918579 542.019836,496.841064 542.203857,496.710205 
	C542.598572,496.339020 542.695557,496.059143 542.800720,495.773865 
	C542.922485,495.807953 542.690002,495.708008 543.009155,495.606110 
	C543.873840,494.359009 544.419373,493.213776 544.954102,492.020874 
	C544.943359,491.973145 545.038086,491.948669 545.340332,491.863312 
	C545.979065,491.081085 546.315552,490.384186 546.718567,489.726776 
	C546.785095,489.766266 546.631653,489.746948 546.871277,489.631165 
	C547.252075,489.201263 547.393250,488.887115 547.645386,488.569397 
	C547.756287,488.565826 547.537720,488.527039 547.886292,488.505890 
	C549.800842,486.349091 551.366821,484.213440 552.924316,482.007507 
	C552.915894,481.937256 553.055786,481.915375 553.387207,481.865540 
	C555.328918,479.753815 556.939209,477.691956 558.588867,475.777679 
	C558.628296,475.925293 558.581177,475.623840 558.820068,475.538940 
	C559.201416,475.161926 559.343872,474.869751 559.511536,474.572876 
	C559.536682,474.568115 559.539124,474.517029 559.818604,474.464600 
	C560.381409,473.952911 560.664795,473.493652 560.945435,472.994446 
	C560.942749,472.954468 561.022339,472.945496 561.358398,472.895142 
	C562.703857,471.491882 563.713318,470.138977 564.805969,468.895020 
	C564.889099,469.003967 564.735413,468.783783 564.984375,468.671204 
	C565.485046,468.096100 565.736694,467.633575 565.979980,467.079590 
	C565.971741,466.988129 566.153748,466.963562 566.336060,466.859894 
	C566.741577,466.569733 566.885742,466.334717 566.948242,466.007294 
	C566.945557,465.963379 567.033142,465.954865 567.333496,465.928802 
	C568.372009,465.581299 569.110229,465.259827 570.172424,464.869171 
	C570.964600,464.122253 571.432739,463.444580 572.046875,462.446350 
	C572.627380,460.294525 573.061890,458.463257 573.541626,456.642517 
	C573.586853,456.653076 573.536194,456.575287 573.884277,456.521851 
	C575.353516,453.903351 576.474670,451.338257 577.591431,448.736053 
	C577.587036,448.698944 577.654419,448.666626 577.965759,448.528839 
	C579.414917,446.209351 580.823975,444.124512 581.643372,441.829132 
	C585.072449,432.223663 584.325073,422.197723 583.619141,412.357422 
	C583.320374,408.192902 580.632080,404.199829 578.900513,399.966309 
	C578.771057,399.803833 578.735840,399.389862 578.756653,399.081726 
	C578.466309,398.278900 578.155090,397.784149 577.616333,397.085938 
	C577.183105,396.313751 576.977417,395.745056 576.814697,394.842621 
	C576.262390,393.694977 575.667114,392.881073 574.995361,392.043457 
	C574.918823,392.019714 574.962524,391.865540 574.966125,391.556396 
	C574.370422,390.536346 573.771057,389.825439 573.059448,389.056183 
	C572.947144,388.997803 572.943787,388.744720 572.949829,388.420837 
	C572.011475,387.094940 571.067078,386.092865 569.864258,384.927704 
	C569.403625,384.416260 569.201477,384.067902 568.928467,383.557434 
	C568.723511,383.190369 568.542603,383.042786 568.202698,382.931091 
	C568.090576,382.909576 568.059143,382.683380 568.033752,382.345306 
	C565.791626,379.987091 563.574890,377.966980 561.233643,375.919861 
	C561.109131,375.892883 561.046021,375.646027 560.961914,375.399017 
	C560.442322,374.921539 560.006836,374.691071 559.780762,374.230286 
	C559.852051,374.154633 559.713867,374.309235 559.504089,374.188416 
	C558.960754,373.654907 558.489014,373.396820 557.757935,373.055878 
	C557.256409,372.711365 557.014343,372.449768 556.637573,371.976044 
	C556.191650,371.654358 555.880371,371.544769 555.687134,371.443665 
	C555.805115,371.452118 555.570557,371.482880 555.552551,371.196472 
	C554.714966,370.539032 553.895386,370.167999 552.836975,369.740662 
	C552.296326,369.531006 552.064453,369.305695 551.748474,368.823700 
	C551.333069,368.424622 551.033569,368.324951 550.776001,368.301880 
	C550.856262,368.263733 550.688171,368.354645 550.598145,368.021973 
	C548.130615,366.249695 545.894897,364.460724 543.351868,363.429596 
	C530.802856,358.341461 517.799866,355.459015 503.876404,356.098297 
	C503.095337,356.353882 502.598877,356.591553 501.663757,356.868561 
	C499.176331,356.981750 497.127533,357.055603 494.883911,356.957703 
	C494.125549,357.186340 493.562012,357.586700 492.594788,358.023499 
	C483.978790,360.980499 475.749207,363.854675 467.577820,366.885681 
	C466.645721,367.231415 466.039520,368.455841 465.251465,369.248413 
	C465.220703,369.223999 465.228516,369.302185 465.012573,369.333679 
	C464.508942,369.473389 464.305481,369.669159 464.030609,370.107300 
	C463.874939,370.262054 463.452423,370.381195 463.077393,370.293945 
	C462.188629,370.171631 461.674957,370.136566 460.809082,370.105286 
	C459.654602,370.782654 458.852325,371.456207 457.916870,372.379333 
	C457.606689,373.159943 457.429749,373.690979 457.241943,374.244202 
	C457.231049,374.266388 457.182343,374.274902 456.803833,374.216064 
	C455.661407,374.192719 454.897461,374.228241 453.959961,373.980011 
	C453.105988,373.322296 452.073120,372.454071 451.798798,372.649658 
	C448.470215,375.023071 444.886780,377.217896 442.169006,380.190155 
	C440.894379,381.584137 441.344666,384.555359 441.007812,387.095398 
	C441.022522,387.566956 441.042664,387.754974 441.059692,388.007019 
	C441.056580,388.070984 440.928497,388.069153 440.620117,388.053711 
	C439.899658,388.062103 439.487640,388.085907 438.861938,387.928467 
	C437.985931,387.969391 437.323578,388.191559 436.661224,388.413727 
	C437.120758,388.944214 437.580261,389.474701 438.056000,390.405701 
	C439.508026,394.098267 440.943817,397.390381 442.372986,400.737091 
	C442.366364,400.791718 442.359283,400.693542 442.289917,401.079437 
	C442.823822,403.641876 443.427094,405.818451 443.713043,408.110046 
	C440.682312,411.859314 443.206146,412.993439 446.318054,414.194366 
	C446.720032,415.270966 446.927612,416.092865 446.892029,417.226685 
	C445.852295,420.937500 444.579407,424.563202 450.394653,425.182617 
	C452.211212,429.178131 453.711670,432.954773 455.433685,436.627563 
	C456.009430,437.855530 457.151123,438.818115 458.308960,440.163940 
	C458.894562,440.825409 459.205353,441.224976 459.672852,441.709106 
	C460.219269,441.850098 460.608917,441.906494 460.998566,441.962860 
M435.360565,418.664001 
	C435.030487,422.448853 434.700409,426.233734 434.370361,430.018585 
	C435.694275,430.108765 437.619171,430.796844 438.232605,430.180206 
	C440.307312,428.094849 438.759369,420.858734 435.360565,418.664001 
M375.451172,555.307434 
	C374.527466,554.843506 373.603790,554.379639 372.680084,553.915710 
	C372.226837,555.959595 371.464661,558.004883 371.473877,560.046692 
	C371.477509,560.851807 373.235413,562.309998 374.132263,562.263794 
	C375.025146,562.217773 376.323914,560.768066 376.559448,559.732544 
	C376.819672,558.588318 376.074371,557.215454 375.451172,555.307434 
M533.437134,528.961548 
	C532.801636,529.000793 532.166138,529.040100 531.530640,529.079407 
	C531.640930,529.500427 531.751221,529.921509 531.861450,530.342529 
	C532.433044,530.063110 533.004639,529.783691 533.437134,528.961548 
M620.655273,437.806488 
	C620.801941,437.985077 620.948547,438.163666 621.095154,438.342285 
	C621.191040,438.254150 621.286865,438.166046 621.382751,438.077911 
	C621.214722,437.918640 621.046631,437.759369 620.655273,437.806488 
z"/>
<path fill="#FEAD48" opacity="1.000000" stroke="none" 
	d="
M613.988342,463.998077 
	C611.562195,456.698181 613.931213,451.060791 620.399719,447.677002 
	C622.010925,446.834167 623.024353,444.828949 624.280579,443.331299 
	C627.044128,440.036682 630.169983,436.957336 632.376099,433.321777 
	C633.466858,431.524139 633.368958,428.545349 632.776917,426.383667 
	C632.488525,425.330872 629.348267,423.950256 628.353638,424.443024 
	C626.574951,425.324188 624.683289,427.319824 624.210022,429.195496 
	C623.395752,432.422729 621.554504,433.775726 618.661133,433.886475 
	C613.838562,434.071075 608.975281,434.259918 604.193115,433.792603 
	C602.701721,433.646851 600.277222,431.419281 600.242249,430.092987 
	C600.116638,425.330231 600.841553,420.546173 601.223877,415.768494 
	C601.501221,412.302612 601.635925,408.821564 602.030334,405.369690 
	C602.573669,400.615845 602.973267,395.762421 607.779297,392.896271 
	C608.558167,392.431793 609.382812,391.410156 609.486267,390.560760 
	C609.861389,387.482086 611.450317,386.225372 614.429443,385.364014 
	C615.901184,384.938507 617.698486,382.142181 617.550842,380.589539 
	C617.401001,379.014648 615.271301,376.901031 613.585632,376.372162 
	C611.142639,375.605682 608.274475,376.313843 605.677429,375.868713 
	C604.397034,375.649292 603.318115,374.254547 602.148010,373.391632 
	C603.323303,372.279633 604.420654,370.325104 605.687988,370.207855 
	C610.147888,369.795288 614.666504,369.977386 619.162354,370.004333 
	C622.738586,370.025757 625.168640,368.837158 626.092590,364.972595 
	C626.365906,363.829346 628.170837,363.052185 629.273865,362.107239 
	C630.173828,363.254761 631.518433,364.283722 631.863953,365.579132 
	C632.320801,367.291992 631.921021,369.217987 632.031189,371.043854 
	C632.110352,372.355652 632.062134,374.569702 632.685486,374.814178 
	C638.247803,376.996185 639.646851,383.613190 644.955383,386.031372 
	C646.169067,386.584259 647.454224,388.010254 647.710266,389.241486 
	C647.859314,389.958099 646.008850,391.067352 645.093323,392.033325 
	C643.441223,393.776459 641.626953,395.426636 640.375977,397.425751 
	C640.181152,397.737030 642.416687,400.310425 643.860474,400.752014 
	C646.891418,401.678986 648.728821,399.965729 649.892212,397.032959 
	C650.376526,395.811951 652.076477,394.240234 653.131104,394.306274 
	C654.246216,394.376068 655.143982,396.349213 656.329102,397.232849 
	C658.122192,398.569794 660.149109,400.690796 661.949524,400.570831 
	C663.373047,400.475952 665.703552,397.539795 665.747498,395.817352 
	C666.074463,383.002960 666.103149,370.171661 665.735596,357.359741 
	C665.684937,355.592010 663.069885,352.701843 661.404114,352.520874 
	C659.813904,352.348114 656.945312,354.725616 656.368347,356.533875 
	C655.428284,359.480499 653.918884,360.092010 651.317810,360.016632 
	C648.322632,359.929810 645.322266,359.960846 642.325256,360.009216 
	C638.214294,360.075531 633.854492,360.950165 633.040100,354.750824 
	C632.904419,353.717926 630.076477,352.170959 628.739685,352.387421 
	C627.136719,352.646851 624.774170,354.356903 624.519348,355.761383 
	C623.278992,362.599701 618.106445,359.256012 614.577881,359.961792 
	C610.574158,360.762604 609.970093,357.855011 609.441467,354.920105 
	C608.171692,347.870575 603.833801,344.445282 596.768494,343.922882 
	C592.246094,343.588531 590.413208,340.248474 592.813171,336.161713 
	C594.343872,333.555176 597.149048,331.729614 599.107117,329.329041 
	C600.264404,327.910278 600.884216,326.053192 601.745728,324.393188 
	C600.112427,323.599457 598.542847,322.404510 596.826782,322.132050 
	C595.302917,321.890076 593.544128,322.476654 592.017578,323.043640 
	C589.140503,324.112213 586.619019,324.700684 584.659546,321.386047 
	C584.348145,320.859314 581.653076,320.952362 581.588745,321.183777 
	C579.795837,327.634583 576.016418,324.426788 572.263062,323.042236 
	C576.529480,319.524231 581.701477,317.889282 587.502258,317.947723 
	C589.710205,317.969971 591.924683,317.345947 594.921143,317.290741 
	C597.019714,317.712463 598.333252,317.988434 599.646851,317.988708 
	C637.777039,317.996796 675.907227,317.977295 714.037415,317.962280 
	C714.037415,317.962280 714.001160,318.000519 714.152466,318.180725 
	C714.567810,318.563232 714.831787,318.765472 715.095764,318.967712 
	C715.840332,319.923645 716.584900,320.879578 717.608032,322.203491 
	C717.886597,322.571472 717.881958,322.988556 717.552185,323.064819 
	C711.086609,326.672760 706.990540,331.352112 707.960571,339.062256 
	C708.206665,341.017700 708.029480,343.026428 708.034973,345.478516 
	C708.025330,356.962189 708.027405,367.978058 708.014771,379.448425 
	C708.009888,382.937286 708.019775,385.971588 708.021362,389.471008 
	C708.025085,400.620209 708.037048,411.304321 708.030273,422.457642 
	C707.434204,429.771912 709.116821,436.844116 706.690735,444.591614 
	C703.366760,441.936096 701.089539,440.045776 698.738953,438.251495 
	C689.523926,431.217102 678.947266,426.831451 667.583496,426.225342 
	C649.901001,425.282196 635.768616,433.258423 625.061340,447.076416 
	C620.945618,452.387848 617.654907,458.338593 613.988342,463.998077 
z"/>
<path fill="#FC8258" opacity="1.000000" stroke="none" 
	d="
M317.988708,666.002441 
	C318.775940,665.683594 319.563171,665.364746 320.677032,665.019287 
	C448.076447,664.993408 575.149231,664.971008 702.221924,665.084839 
	C706.965820,665.089050 708.113586,663.424316 708.092590,658.989685 
	C707.940796,627.013977 708.320129,595.031799 707.774719,563.064636 
	C707.638367,555.070984 711.345215,549.733887 715.484558,544.027527 
	C716.721802,542.321838 717.804077,540.503784 719.020996,538.386841 
	C719.358276,539.426147 719.870422,540.815796 719.870728,542.205505 
	C719.879761,583.125610 719.683105,624.046753 719.956116,664.964783 
	C720.001892,671.822998 716.999756,675.714478 710.990601,678.592163 
	C708.793884,678.249268 707.310486,678.016479 705.827087,678.016174 
	C626.653198,678.002197 547.479309,678.002258 468.305450,678.045837 
	C466.527435,678.046814 464.749664,678.563538 462.971802,678.839661 
	C446.213593,678.893250 429.454315,679.092041 412.697418,678.968506 
	C383.026855,678.749695 353.357330,678.365906 323.688599,677.961792 
	C320.109314,677.913086 316.440369,677.686890 313.005859,676.797791 
	C311.433380,676.390686 310.329102,674.175049 309.506226,672.390442 
	C314.491699,672.437134 317.948120,671.494202 317.988708,666.002441 
z"/>
<path fill="#F88560" opacity="1.000000" stroke="none" 
	d="
M708.048950,421.988403 
	C708.037048,411.304321 708.025085,400.620209 708.365601,389.314758 
	C710.432129,385.322235 711.415100,382.002991 708.029480,378.993896 
	C708.027405,367.978058 708.025330,356.962189 708.378906,345.399017 
	C710.104065,342.769165 711.607788,340.759460 712.791382,338.576111 
	C713.470032,337.324127 713.214233,334.954102 714.089539,334.520081 
	C719.435364,331.869202 717.827637,327.204315 717.881958,322.988556 
	C717.881958,322.988556 717.886597,322.571472 717.885376,322.362915 
	C718.256775,323.246521 718.954163,324.338409 718.955078,325.430878 
	C718.985657,362.203705 718.982788,398.976685 718.883179,435.749329 
	C718.870361,440.498810 718.415955,445.257141 717.965759,449.992340 
	C717.564636,454.210815 710.361450,458.407684 706.061951,456.368225 
	C701.278870,454.099426 696.715881,451.147003 692.525940,447.889099 
	C680.482300,438.524445 667.091919,434.806885 652.741577,440.248932 
	C646.090515,442.771179 640.646790,448.477386 634.331543,452.438965 
	C633.041260,447.507477 635.728699,444.400208 638.350952,441.124054 
	C640.780518,438.088501 643.173096,440.741547 645.578125,440.660187 
	C646.804749,440.618713 647.999756,439.718292 649.213989,439.218048 
	C652.245544,437.969147 655.261719,435.719238 658.316406,435.664154 
	C669.101013,435.469727 679.770630,436.391235 688.984253,443.185089 
	C690.099182,444.007172 692.851624,444.237427 693.714172,443.470276 
	C696.409790,441.072845 697.934143,440.850128 700.503540,443.901520 
	C701.898987,445.558655 705.360718,446.500488 707.546082,446.059296 
	C708.736267,445.819000 709.566284,442.069611 709.919312,439.803284 
	C710.476990,436.223633 710.881470,432.530975 710.608582,428.942596 
	C710.428345,426.573364 708.947449,424.303009 708.048950,421.988403 
z"/>
<path fill="#FD8955" opacity="1.000000" stroke="none" 
	d="
M708.030273,422.457642 
	C708.947449,424.303009 710.428345,426.573364 710.608582,428.942596 
	C710.881470,432.530975 710.476990,436.223633 709.919312,439.803284 
	C709.566284,442.069611 708.736267,445.819000 707.546082,446.059296 
	C705.360718,446.500488 701.898987,445.558655 700.503540,443.901520 
	C697.934143,440.850128 696.409790,441.072845 693.714172,443.470276 
	C692.851624,444.237427 690.099182,444.007172 688.984253,443.185089 
	C679.770630,436.391235 669.101013,435.469727 658.316406,435.664154 
	C655.261719,435.719238 652.245544,437.969147 649.213989,439.218048 
	C647.999756,439.718292 646.804749,440.618713 645.578125,440.660187 
	C643.173096,440.741547 640.780518,438.088501 638.350952,441.124054 
	C635.728699,444.400208 633.041260,447.507477 634.023621,452.566833 
	C634.039978,452.995819 634.028625,453.033386 633.816467,453.166138 
	C633.363831,453.503571 633.175171,453.748230 633.038330,454.032837 
	C633.038330,454.032837 633.000000,454.001221 632.815796,454.158966 
	C632.380920,454.534393 632.178223,454.790070 632.023499,455.083679 
	C632.023499,455.083679 632.024780,455.015167 631.694092,455.094116 
	C630.257202,457.120819 629.151062,459.068512 628.044861,461.016205 
	C628.044861,461.016205 628.022766,461.021423 627.677246,461.092651 
	C624.223877,468.073975 620.043152,474.729980 618.328796,481.970001 
	C616.803040,488.413544 617.698120,495.524353 618.143555,502.300018 
	C618.358215,505.565155 619.996826,508.736694 620.990601,511.950623 
	C620.990601,511.950623 621.055054,511.968628 621.028320,512.401917 
	C621.994751,515.207703 622.987854,517.580200 623.980957,519.952698 
	C623.980957,519.952698 624.053406,519.974670 624.077637,520.282166 
	C624.381042,521.044739 624.660156,521.499817 624.939331,521.954895 
	C626.243713,524.057739 627.548096,526.160583 628.896057,528.599243 
	C625.672729,527.872986 621.724426,527.612427 619.304382,525.554626 
	C615.966797,522.716553 612.422791,518.884399 611.345764,514.843994 
	C607.205994,499.313385 607.839050,483.662811 612.710815,468.262054 
	C612.859619,467.791626 612.880127,467.280609 612.983337,466.395264 
	C613.301086,465.522278 613.595886,465.042511 613.939453,464.280396 
	C617.654907,458.338593 620.945618,452.387848 625.061340,447.076416 
	C635.768616,433.258423 649.901001,425.282196 667.583496,426.225342 
	C678.947266,426.831451 689.523926,431.217102 698.738953,438.251495 
	C701.089539,440.045776 703.366760,441.936096 706.690735,444.591614 
	C709.116821,436.844116 707.434204,429.771912 708.030273,422.457642 
z"/>
<path fill="#F88560" opacity="1.000000" stroke="none" 
	d="
M353.016846,427.049713 
	C354.445435,427.004578 355.874054,426.959412 357.911011,427.149231 
	C360.017548,426.954437 361.515656,426.524719 363.013794,426.095001 
	C379.830780,427.609039 393.543274,434.814270 403.905701,449.054199 
	C404.854675,451.871033 405.477509,454.108582 406.596008,456.062347 
	C409.238220,460.677917 410.161591,465.207855 407.451385,470.176666 
	C406.754211,471.454865 406.670502,473.266235 406.828949,474.777710 
	C407.467804,480.871063 408.311707,486.942932 409.079865,493.022736 
	C408.906799,495.448120 408.733734,497.873535 408.363647,500.635040 
	C408.209534,489.856537 407.186066,478.918884 402.832886,468.525085 
	C398.412811,457.971466 391.339874,449.395782 381.767944,443.427002 
	C369.641113,435.865021 356.688293,436.778381 343.525574,441.664185 
	C345.039886,440.331604 346.942505,439.434601 348.600189,438.206818 
	C349.476715,437.557648 350.155792,436.412628 350.524994,435.352478 
	C351.474396,432.626251 352.201141,429.822479 353.016846,427.049713 
z"/>
<path fill="#FD8955" opacity="1.000000" stroke="none" 
	d="
M352.621307,427.043365 
	C352.201141,429.822479 351.474396,432.626251 350.524994,435.352478 
	C350.155792,436.412628 349.476715,437.557648 348.600189,438.206818 
	C346.942505,439.434601 345.039886,440.331604 343.139954,441.695282 
	C343.040894,442.024506 343.012207,442.011078 342.649475,442.015808 
	C341.207581,442.705139 340.128418,443.389740 339.049255,444.074310 
	C339.049255,444.074310 339.016449,444.016083 338.843475,444.156036 
	C338.409912,444.503632 338.198242,444.752808 338.035522,445.043579 
	C338.035522,445.043579 338.000000,445.000000 337.821533,445.141785 
	C337.390564,445.478058 337.189636,445.716125 337.040375,445.997803 
	C337.040375,445.997803 337.037109,446.040771 336.677704,446.049622 
	C335.564514,446.734314 334.810730,447.410126 334.056946,448.085938 
	C334.056946,448.085968 334.024292,448.026978 333.847839,448.167053 
	C333.454071,448.566742 333.236755,448.826355 333.019440,449.085968 
	C333.019440,449.085968 333.016266,449.015778 332.843018,449.165100 
	C332.459625,449.581085 332.249512,449.847687 332.039398,450.114319 
	C332.039398,450.114319 332.029724,450.043549 331.767334,450.103668 
	C331.012512,450.477722 330.520050,450.791656 330.027618,451.105591 
	C323.980652,457.474304 318.985931,458.695282 312.384033,454.977234 
	C310.931549,454.159210 310.130310,452.184814 309.100098,450.363281 
	C317.165222,449.882782 321.535004,443.524048 327.042603,439.331635 
	C334.677185,433.520142 342.935272,429.301575 352.621307,427.043365 
z"/>
<path fill="#FEAD48" opacity="1.000000" stroke="none" 
	d="
M407.626709,506.079407 
	C407.853180,510.864105 407.791351,515.821350 407.592377,520.773132 
	C407.562958,521.505737 407.018494,522.334961 406.486938,522.911865 
	C401.546783,528.273315 396.653198,533.683533 391.545166,538.882263 
	C388.579803,541.900269 386.682434,544.879517 387.729462,549.452271 
	C388.600159,553.254944 386.720520,554.685791 382.891846,553.672729 
	C381.465698,553.295410 380.182037,552.407959 378.772522,551.934265 
	C375.027618,550.675598 371.585968,550.130371 367.294586,551.202271 
	C362.439453,552.415039 356.799042,551.740967 351.762695,550.661865 
	C345.048218,549.223022 338.586914,546.602722 331.778534,544.413269 
	C331.702545,543.177124 331.926453,541.770752 331.449890,540.666870 
	C331.068970,539.784546 329.912872,539.008545 328.942444,538.722473 
	C328.559784,538.609619 327.713806,539.926208 327.139221,540.640564 
	C326.298279,541.686157 325.511688,542.775452 324.701965,543.846191 
	C323.582794,542.824463 321.902954,541.998596 321.463135,540.739563 
	C320.595459,538.255737 320.414917,535.531982 319.974304,532.541748 
	C325.954010,535.345825 332.470764,537.780457 337.762787,541.819702 
	C355.439697,555.311951 380.241058,550.185852 394.473511,532.569458 
	C400.937988,524.567993 404.538879,515.758728 407.626709,506.079407 
z"/>
<path fill="#F08A70" opacity="1.000000" stroke="none" 
	d="
M463.439026,678.912109 
	C464.749664,678.563538 466.527435,678.046814 468.305450,678.045837 
	C547.479309,678.002258 626.653198,678.002197 705.827087,678.016174 
	C707.310486,678.016479 708.793884,678.249268 710.648560,678.556274 
	C709.362854,678.825806 707.705933,678.988403 706.049011,678.988525 
	C625.334778,678.995972 544.620483,678.989441 463.439026,678.912109 
z"/>
<path fill="#F3B15E" opacity="1.000000" stroke="none" 
	d="
M463.589722,317.105835 
	C461.951141,317.452911 459.841858,317.972595 457.732056,317.974609 
	C409.788849,318.020386 361.845612,318.009491 313.431885,317.986603 
	C314.324524,317.640503 315.687439,317.035248 317.050751,317.034302 
	C365.740051,317.000244 414.429413,317.022705 463.589722,317.105835 
z"/>
<path fill="#F3B15E" opacity="1.000000" stroke="none" 
	d="
M713.801392,317.597412 
	C675.907227,317.977295 637.777039,317.996796 599.646851,317.988708 
	C598.333252,317.988434 597.019714,317.712463 595.347046,317.359070 
	C634.513794,317.179565 674.039612,317.206055 713.801392,317.597412 
z"/>
<path fill="#F88560" opacity="1.000000" stroke="none" 
	d="
M620.994507,511.525452 
	C619.996826,508.736694 618.358215,505.565155 618.143555,502.300018 
	C617.698120,495.524353 616.803040,488.413544 618.328796,481.970001 
	C620.043152,474.729980 624.223877,468.073975 627.678162,461.104004 
	C622.512634,471.691986 618.990417,482.857300 619.607849,494.998260 
	C619.881287,500.375275 620.523560,505.733521 620.994507,511.525452 
z"/>
<path fill="#FEAD48" opacity="1.000000" stroke="none" 
	d="
M317.570312,666.001221 
	C317.948120,671.494202 314.491699,672.437134 309.584229,671.997253 
	C308.789886,666.635803 308.411346,661.278381 308.107269,655.460205 
	C309.333130,657.165894 311.077972,659.223999 311.497864,661.523987 
	C312.139709,665.039856 313.684387,666.495667 317.570312,666.001221 
z"/>
<path fill="#FEAD48" opacity="1.000000" stroke="none" 
	d="
M314.655426,532.097046 
	C314.162628,535.794678 313.515411,539.488525 312.338226,543.004944 
	C312.023529,543.945007 310.089478,544.342896 308.535034,544.996216 
	C307.019653,539.167664 308.767273,534.702454 314.655426,532.097046 
z"/>
<path fill="#FEAD48" opacity="1.000000" stroke="none" 
	d="
M555.595825,337.063965 
	C555.440002,339.336426 555.559265,342.118805 554.318054,344.006744 
	C553.246216,345.636993 550.187927,347.500641 548.797729,347.012360 
	C546.835327,346.323059 545.600952,343.561401 544.067444,341.315399 
	C545.559875,342.598328 547.040100,344.251556 548.726562,346.135071 
	C550.935425,343.118683 553.107788,340.152130 555.595825,337.063965 
z"/>
<path fill="#FEAD48" opacity="1.000000" stroke="none" 
	d="
M566.612122,326.066803 
	C566.304321,331.550232 561.957642,333.675659 557.287842,335.878601 
	C560.052246,332.682953 563.173279,329.441254 566.612122,326.066803 
z"/>
<path fill="#FEAD48" opacity="1.000000" stroke="none" 
	d="
M308.094971,556.444824 
	C311.040802,558.686707 310.575958,561.628479 308.501221,564.834106 
	C308.122833,562.296814 308.072418,559.593445 308.094971,556.444824 
z"/>
<path fill="#F88560" opacity="1.000000" stroke="none" 
	d="
M628.342896,460.868530 
	C629.151062,459.068512 630.257202,457.120819 631.719604,455.117004 
	C630.930786,456.947571 629.785828,458.834229 628.342896,460.868530 
z"/>
<path fill="#F88560" opacity="1.000000" stroke="none" 
	d="
M623.958374,519.585876 
	C622.987854,517.580200 621.994751,515.207703 621.019775,512.434265 
	C622.003906,514.428589 622.969849,516.823792 623.958374,519.585876 
z"/>
<path fill="#F88560" opacity="1.000000" stroke="none" 
	d="
M339.387634,444.033264 
	C340.128418,443.389740 341.207581,442.705139 342.650635,442.029968 
	C341.918335,442.690338 340.822144,443.341278 339.387634,444.033264 
z"/>
<path fill="#F88560" opacity="1.000000" stroke="none" 
	d="
M334.367432,448.027161 
	C334.810730,447.410126 335.564514,446.734314 336.656158,446.049255 
	C336.221985,446.682800 335.449951,447.325592 334.367432,448.027161 
z"/>
<path fill="#FD8955" opacity="1.000000" stroke="none" 
	d="
M631.921204,532.604919 
	C631.433960,532.358582 630.913635,531.837463 630.422607,531.012756 
	C630.930664,531.249512 631.409424,531.789795 631.921204,532.604919 
z"/>
<path fill="#FD8955" opacity="1.000000" stroke="none" 
	d="
M636.247803,537.216187 
	C635.771973,537.045654 635.186279,536.638611 634.585388,535.939819 
	C635.092773,536.091980 635.615356,536.535889 636.247803,537.216187 
z"/>
<path fill="#F88560" opacity="1.000000" stroke="none" 
	d="
M624.933472,521.671265 
	C624.660156,521.499817 624.381042,521.044739 624.068115,520.318787 
	C624.332031,520.494507 624.629822,520.941040 624.933472,521.671265 
z"/>
<path fill="#FEAD48" opacity="1.000000" stroke="none" 
	d="
M569.663818,323.943542 
	C569.492310,324.207031 569.006226,324.510529 568.230957,324.852722 
	C568.410950,324.588806 568.880005,324.286163 569.663818,323.943542 
z"/>
<path fill="#FD8955" opacity="1.000000" stroke="none" 
	d="
M630.285583,530.378479 
	C629.962219,530.299927 629.564880,529.963196 629.113586,529.360107 
	C629.443604,529.435913 629.827637,529.778137 630.285583,530.378479 
z"/>
<path fill="#FD8955" opacity="1.000000" stroke="none" 
	d="
M634.272888,535.210205 
	C633.971313,535.165466 633.578430,534.895447 633.135681,534.377686 
	C633.451050,534.414978 633.816345,534.699951 634.272888,535.210205 
z"/>
<path fill="#FD8955" opacity="1.000000" stroke="none" 
	d="
M637.766663,538.663025 
	C637.424072,538.631775 637.015442,538.366699 636.558594,537.849731 
	C636.907043,537.874939 637.303833,538.152100 637.766663,538.663025 
z"/>
<path fill="#F88560" opacity="1.000000" stroke="none" 
	d="
M330.343140,451.057495 
	C330.520050,450.791656 331.012512,450.477722 331.800354,450.117279 
	C331.616699,450.383667 331.137665,450.696564 330.343140,451.057495 
z"/>
<path fill="#F3B15E" opacity="1.000000" stroke="none" 
	d="
M312.715790,318.009247 
	C312.759338,318.210205 312.528259,318.470795 312.066650,318.859375 
	C312.037811,318.681183 312.239502,318.375031 312.715790,318.009247 
z"/>
<path fill="#F3B15E" opacity="1.000000" stroke="none" 
	d="
M715.010010,318.712219 
	C714.831787,318.765472 714.567810,318.563232 714.159180,318.155365 
	C714.317688,318.118744 714.620972,318.287720 715.010010,318.712219 
z"/>
<path fill="#FEAD48" opacity="1.000000" stroke="none" 
	d="
M570.725952,323.130371 
	C570.793030,323.397614 570.566833,323.591125 570.110107,323.851501 
	C570.095276,323.667664 570.279602,323.380463 570.725952,323.130371 
z"/>
<path fill="#F88560" opacity="1.000000" stroke="none" 
	d="
M332.296936,450.023529 
	C332.249512,449.847687 332.459625,449.581085 332.878174,449.165466 
	C332.909210,449.321899 332.731873,449.627319 332.296936,450.023529 
z"/>
<path fill="#F88560" opacity="1.000000" stroke="none" 
	d="
M633.276062,453.955444 
	C633.175171,453.748230 633.363831,453.503571 633.797607,453.169861 
	C633.983276,453.406158 633.824219,453.685242 633.276062,453.955444 
z"/>
<path fill="#F88560" opacity="1.000000" stroke="none" 
	d="
M333.283295,449.009216 
	C333.236755,448.826355 333.454071,448.566742 333.881073,448.161438 
	C333.909546,448.321320 333.728333,448.626862 333.283295,449.009216 
z"/>
<path fill="#F88560" opacity="1.000000" stroke="none" 
	d="
M632.278564,455.006775 
	C632.178223,454.790070 632.380920,454.534393 632.833557,454.176971 
	C632.868286,454.334778 632.700928,454.632324 632.278564,455.006775 
z"/>
<path fill="#F88560" opacity="1.000000" stroke="none" 
	d="
M337.286560,445.937897 
	C337.189636,445.716125 337.390564,445.478058 337.843323,445.159485 
	C337.873291,445.316223 337.703003,445.597107 337.286560,445.937897 
z"/>
<path fill="#FEAD48" opacity="1.000000" stroke="none" 
	d="
M544.008545,340.708069 
	C543.793884,340.789948 543.547791,340.573975 543.203064,340.112793 
	C543.359680,340.089020 543.650513,340.269897 544.008545,340.708069 
z"/>
<path fill="#F88560" opacity="1.000000" stroke="none" 
	d="
M338.294373,444.979004 
	C338.198242,444.752808 338.409912,444.503632 338.876648,444.160034 
	C338.906250,444.320831 338.729706,444.617615 338.294373,444.979004 
z"/>
<path fill="#FEAD48" opacity="1.000000" stroke="none" 
	d="
M541.003052,336.714478 
	C540.830872,336.751709 540.579651,336.533539 540.187500,336.109741 
	C540.339050,336.089081 540.631531,336.274109 541.003052,336.714478 
z"/>
<path fill="#FEAD48" opacity="1.000000" stroke="none" 
	d="
M556.702881,335.988617 
	C556.792053,336.205200 556.578186,336.457550 556.122314,336.822754 
	C556.094299,336.666351 556.267456,336.362610 556.702881,335.988617 
z"/>
<path fill="#FEAD48" opacity="1.000000" stroke="none" 
	d="
M541.989380,337.695801 
	C541.770813,337.784912 541.524475,337.573151 541.174072,337.117981 
	C541.330566,337.090576 541.627808,337.264008 541.989380,337.695801 
z"/>
<path fill="#FEAD48" opacity="1.000000" stroke="none" 
	d="
M542.831543,338.727356 
	C542.577820,338.791260 542.393555,338.576141 542.148560,338.139893 
	C542.322998,338.126099 542.594055,338.302643 542.831543,338.727356 
z"/>
<path fill="#FEAD48" opacity="1.000000" stroke="none" 
	d="
M567.706177,324.996521 
	C567.785461,325.204468 567.569519,325.455414 567.115906,325.821594 
	C567.091919,325.668793 567.269531,325.369720 567.706177,324.996521 
z"/>
<path fill="#17193A" opacity="1.000000" stroke="none" 
	d="
M459.516113,441.624573 
	C459.205353,441.224976 458.894562,440.825409 458.287872,439.792725 
	C454.106720,429.654358 450.221497,420.149048 446.311371,410.420837 
	C446.286438,410.197876 446.014374,409.841064 446.010223,409.481415 
	C444.790466,406.312347 443.574890,403.502960 442.359283,400.693542 
	C442.359283,400.693542 442.366364,400.791718 442.312164,400.370575 
	C441.475952,396.027252 437.166901,392.499786 440.928497,388.069153 
	C440.928497,388.069153 441.056580,388.070984 441.290649,387.955811 
	C441.818054,387.650665 441.961639,387.380859 442.201477,386.932800 
	C442.638458,386.544830 442.829407,386.255402 443.260498,385.909760 
	C443.812927,385.665253 443.965790,385.388824 444.206299,384.922119 
	C444.654419,384.534790 444.855530,384.249664 445.286255,383.913269 
	C445.809235,383.686707 445.966980,383.428528 446.033264,383.088074 
	C446.077362,383.088654 446.084259,383.000702 446.378540,382.923035 
	C447.543579,382.002197 448.414276,381.158997 449.209015,380.164795 
	C449.133057,380.013794 449.262115,380.325470 449.514465,380.245972 
	C449.986969,379.898315 450.207123,379.630157 450.372253,379.358704 
	C450.317230,379.355408 450.333435,379.464478 450.594299,379.378235 
	C451.221954,378.910889 451.588776,378.529755 452.034485,378.160828 
	C452.113342,378.173035 452.147491,378.017120 452.419922,377.972198 
	C453.109833,377.366089 453.527344,376.804932 454.048035,376.204712 
	C454.151245,376.165649 454.228363,375.958923 454.524719,375.951996 
	C455.608154,375.388367 456.395264,374.831635 457.182343,374.274902 
	C457.182343,374.274902 457.231049,374.266388 457.534515,374.185120 
	C458.637817,373.514893 459.437683,372.925934 460.237183,372.305908 
	C460.236816,372.274841 460.293671,372.299957 460.598694,372.221924 
	C461.753265,371.556335 462.602844,370.968750 463.452393,370.381165 
	C463.452423,370.381195 463.874939,370.262054 464.254364,370.102356 
	C464.951569,369.840393 465.149811,369.626892 465.228516,369.302185 
	C465.228516,369.302185 465.220703,369.223999 465.605835,369.200439 
	C480.116760,361.600281 495.005585,357.320465 511.225616,357.714874 
	C525.317566,358.057556 538.244751,362.175690 550.688171,368.354645 
	C550.688171,368.354645 550.856262,368.263733 550.910767,368.510803 
	C551.239807,368.983032 551.552246,369.066559 551.902588,369.008392 
	C552.064453,369.305695 552.296326,369.531006 553.050171,369.957886 
	C554.191650,370.648560 554.881104,371.065735 555.570557,371.482880 
	C555.570557,371.482880 555.805115,371.452118 555.823853,371.657776 
	C556.152466,371.971680 556.462341,372.079926 556.772217,372.188141 
	C557.014343,372.449768 557.256409,372.711365 557.857910,373.302368 
	C558.670044,373.909119 559.122925,374.186493 559.575745,374.463837 
	C559.713867,374.309235 559.852051,374.154633 559.899902,374.447449 
	C560.221680,375.145294 560.633850,375.395660 561.046021,375.645996 
	C561.046021,375.646027 561.109131,375.892883 561.346436,376.210510 
	C563.742249,378.579865 565.900696,380.631622 568.059143,382.683380 
	C568.059143,382.683380 568.090576,382.909576 568.222168,383.126892 
	C568.486389,383.611450 568.701599,383.736542 568.999390,383.719513 
	C569.201477,384.067902 569.403625,384.416260 569.925049,385.216766 
	C571.144104,386.694183 572.043945,387.719452 572.943787,388.744720 
	C572.943787,388.744720 572.947144,388.997803 573.096008,389.331940 
	C573.817444,390.399231 574.389954,391.132385 574.962524,391.865540 
	C574.962524,391.865540 574.918823,392.019714 575.022644,392.346588 
	C575.674927,393.507751 576.223328,394.342041 576.771729,395.176361 
	C576.977417,395.745056 577.183105,396.313751 577.616943,397.381592 
	C578.142029,398.383759 578.438904,398.886810 578.735840,399.389862 
	C578.735840,399.389862 578.771057,399.803833 578.918457,400.341492 
	C579.692444,402.756256 580.388977,404.613251 580.934448,406.513611 
	C585.083130,420.967804 583.060120,434.950928 577.654419,448.666626 
	C577.654419,448.666626 577.587036,448.698944 577.363037,448.968689 
	C575.938049,451.684052 574.737122,454.129669 573.536194,456.575287 
	C573.536194,456.575287 573.586853,456.653076 573.303711,456.847778 
	C571.886658,458.888550 570.752808,460.734650 569.365112,462.757111 
	C568.418579,463.940582 567.725830,464.947723 567.033142,465.954865 
	C567.033142,465.954865 566.945557,465.963379 566.732849,466.072021 
	C566.243286,466.369202 566.121155,466.630157 566.153748,466.963562 
	C566.153748,466.963562 565.971741,466.988129 565.729370,467.179932 
	C565.236511,467.842438 564.985962,468.313110 564.735413,468.783783 
	C564.735413,468.783783 564.889099,469.003967 564.519775,469.020752 
	C563.107727,470.340179 562.065002,471.642822 561.022339,472.945496 
	C561.022339,472.945496 560.942749,472.954468 560.694458,473.085846 
	C560.143799,473.650513 559.841492,474.083771 559.539185,474.517029 
	C559.539124,474.517029 559.536682,474.568115 559.292114,474.678223 
	C558.772583,475.000153 558.617126,475.278656 558.581177,475.623840 
	C558.581177,475.623840 558.628296,475.925293 558.303223,475.923492 
	C556.337402,477.919586 554.696594,479.917480 553.055786,481.915344 
	C553.055786,481.915375 552.915894,481.937256 552.638428,482.147339 
	C550.753174,484.413971 549.145447,486.470490 547.537720,488.527039 
	C547.537720,488.527039 547.756287,488.565826 547.417664,488.697449 
	C546.929871,489.135040 546.780762,489.440979 546.631653,489.746948 
	C546.631653,489.746948 546.785095,489.766266 546.465698,489.869385 
	C545.776917,490.631195 545.407471,491.289948 545.038086,491.948669 
	C545.038086,491.948669 544.943359,491.973145 544.686829,492.185730 
	C543.850159,493.501526 543.270081,494.604767 542.690002,495.708008 
	C542.690002,495.708008 542.922485,495.807953 542.594360,495.886597 
	C542.034729,496.215118 541.952576,496.507080 542.019836,496.841064 
	C542.019836,496.841064 541.839294,496.918579 541.598267,497.197174 
	C536.571533,505.649750 534.345276,514.526917 534.686401,523.993408 
	C520.526428,523.993408 506.970184,523.993408 493.245331,523.993408 
	C493.193115,522.803711 493.143890,521.993042 493.123932,521.181702 
	C492.824097,508.979980 495.823120,497.453949 500.290344,486.229218 
	C500.290344,486.229218 500.044861,486.121704 500.395477,485.980133 
	C500.887146,485.287964 501.028198,484.737366 501.169189,484.186768 
	C501.169189,484.186768 501.207001,484.158386 501.452362,483.921844 
	C502.550293,481.889740 503.402893,480.094177 504.255493,478.298645 
	C504.255524,478.298645 504.317383,478.276855 504.510498,478.122498 
	C504.901978,477.705292 504.969147,477.412354 504.905121,477.089294 
	C504.905121,477.089294 505.074524,477.008087 505.278931,476.788391 
	C505.669678,476.100739 505.856049,475.632751 506.042419,475.164764 
	C506.042419,475.164764 506.176483,475.126556 506.423523,474.881042 
	C507.951111,472.649628 509.231689,470.663727 510.512238,468.677826 
	C510.512238,468.677826 510.701721,468.598145 510.929443,468.316833 
	C511.796112,467.066254 512.435059,466.096954 513.074036,465.127625 
	C513.074036,465.127625 513.099854,465.105194 513.329102,465.001434 
	C513.833130,464.683228 513.962830,464.401855 513.947327,464.053558 
	C513.947327,464.053558 514.048218,464.038239 514.308960,463.866180 
	C515.129578,462.901642 515.689453,462.109192 516.249268,461.316711 
	C516.249268,461.316711 516.207764,461.244507 516.476196,461.155701 
	C516.885132,460.771667 517.025696,460.476440 517.166260,460.181213 
	C517.166260,460.181213 517.041626,460.062164 517.336670,460.020386 
	C517.909058,459.763275 518.041382,459.480133 518.028687,459.129150 
	C518.310547,458.886444 518.592346,458.643768 519.239258,457.998840 
	C520.399292,456.430298 521.194275,455.264008 521.989197,454.097687 
	C521.989197,454.097687 522.105408,454.072113 522.352356,453.866272 
	C523.054321,452.784424 523.509338,451.908386 523.964355,451.032349 
	C523.964294,451.032318 524.042725,451.007233 524.263062,450.810577 
	C524.660095,450.097931 524.836731,449.581940 525.013428,449.065979 
	C525.013428,449.065979 525.073547,449.040070 525.334717,448.753082 
	C527.872070,443.078674 527.828186,437.910278 524.143860,433.085602 
	C524.143860,433.085602 524.158325,432.895782 523.999878,432.558594 
	C522.032532,430.678467 520.223572,429.135559 518.414673,427.592621 
	C518.414673,427.592621 518.384827,427.526825 518.111877,427.289276 
	C505.239716,421.399811 493.059784,424.004730 480.997284,428.922455 
	C480.997284,428.922455 480.931763,428.900757 480.588623,428.931580 
	C479.080170,429.547729 477.914886,430.133087 476.749603,430.718445 
	C476.749603,430.718445 476.834045,430.747223 476.539551,430.734558 
	C475.755768,431.044647 475.266449,431.367371 474.777161,431.690063 
	C474.777130,431.690063 474.853943,431.950714 474.469482,431.877350 
	C472.411957,432.836182 470.738953,433.868378 469.065918,434.900604 
	C469.065918,434.900604 468.906250,434.861725 468.647064,434.953125 
	C468.053406,435.144531 467.835266,435.361633 467.733490,435.695770 
	C467.733490,435.695770 467.846863,435.992828 467.486389,435.919067 
	C466.346100,436.477783 465.566254,437.110291 464.786377,437.742798 
	C464.786377,437.742767 464.997559,437.996338 464.629456,437.931641 
	C463.886078,438.246338 463.510803,438.625702 463.135529,439.005035 
	C463.135529,439.005035 463.011932,438.985779 462.697815,439.133057 
	C461.427856,440.061737 460.472015,440.843170 459.516113,441.624573 
z"/>
<path fill="#17193B" opacity="1.000000" stroke="none" 
	d="
M552.802612,577.336731 
	C559.521912,589.604492 561.488586,602.457031 556.873169,615.838867 
	C549.147095,638.239685 523.627502,650.738708 499.896973,643.969543 
	C477.441833,637.564087 463.849426,614.270020 469.047913,591.101562 
	C474.162354,568.307617 497.479797,552.836792 520.919434,556.519958 
	C533.880798,558.556580 543.659546,565.408997 551.600220,575.931030 
	C551.919983,576.095459 551.882202,576.047363 551.924438,576.330261 
	C552.267090,576.815918 552.567505,577.018616 552.830322,577.238098 
	C552.792603,577.254822 552.802612,577.336731 552.802612,577.336731 
z"/>
<path fill="#FFAD45" opacity="1.000000" stroke="none" 
	d="
M551.889099,576.097534 
	C552.338501,572.648499 552.508240,569.115601 553.388000,565.769470 
	C554.235229,562.546875 553.245178,561.325378 550.210022,560.434937 
	C548.383667,559.899109 545.535645,558.174438 545.548523,557.010498 
	C545.575439,554.573853 547.191101,552.154663 548.154297,549.728333 
	C549.764404,551.406555 551.499878,552.984802 552.943848,554.795532 
	C554.042664,556.173401 555.134888,559.272766 555.604309,559.152954 
	C558.302734,558.464722 561.878296,558.325378 561.965820,554.158325 
	C561.983276,553.326416 561.748352,552.392151 562.048767,551.682434 
	C562.799011,549.910278 563.790100,548.240112 564.684570,546.528992 
	C565.804993,547.939514 566.874817,549.394287 568.061340,550.746826 
	C569.054749,551.879211 570.053223,553.599121 571.278137,553.826416 
	C575.105408,554.536560 575.950073,556.847778 576.035095,560.246094 
	C576.260254,569.245728 576.811768,569.554626 585.767639,570.125732 
	C587.703735,570.249207 589.540894,571.923035 591.423645,572.882812 
	C589.961792,573.949585 588.286133,574.822632 587.096313,576.135925 
	C585.829041,577.534607 584.238281,579.347717 584.233643,580.983948 
	C584.229065,582.623779 585.798096,584.459045 587.065979,585.856018 
	C588.258728,587.170105 589.958374,588.024048 591.434998,589.080444 
	C589.905579,590.093079 588.254639,590.966431 586.884827,592.161926 
	C585.766357,593.138062 584.791687,594.401917 584.123413,595.725098 
	C583.718262,596.527344 584.009705,597.685364 584.001770,598.683594 
	C583.933411,607.287476 582.858154,608.761353 574.450256,608.865356 
	C569.879211,608.921875 568.562256,610.669556 568.974915,614.828430 
	C569.487122,619.990601 568.920044,624.265320 562.447693,625.726379 
	C559.792480,626.325806 557.638611,629.146057 555.301514,630.921936 
	C554.677979,630.108643 554.466736,629.901733 554.495178,629.860596 
	C560.037598,621.842957 560.120911,612.273254 561.170837,603.257263 
	C562.254456,593.952087 561.195740,584.448364 553.159668,577.335327 
	C552.802612,577.336731 552.792603,577.254822 552.706177,577.010254 
	C552.373901,576.526184 552.128052,576.286804 551.882202,576.047363 
	C551.882202,576.047363 551.919983,576.095459 551.889099,576.097534 
z"/>
<path fill="#F08A70" opacity="1.000000" stroke="none" 
	d="
M499.986938,486.392578 
	C495.823120,497.453949 492.824097,508.979980 493.123932,521.181702 
	C493.143890,521.993042 493.193115,522.803711 493.245331,523.993408 
	C506.970184,523.993408 520.526428,523.993408 534.686401,523.993408 
	C534.345276,514.526917 536.571533,505.649750 541.617432,497.293518 
	C540.532959,501.787201 539.188354,506.463135 537.597046,511.827820 
	C536.533020,516.949524 535.715637,521.382446 534.898254,525.815308 
	C532.886719,525.849976 530.875122,525.884644 528.431763,525.930908 
	C517.867249,525.930847 507.732544,525.801208 497.602661,525.965515 
	C493.559967,526.031067 491.984802,524.606323 491.992249,520.469543 
	C492.013733,508.555786 493.375763,497.013824 499.986938,486.392578 
z"/>
<path fill="#F08A70" opacity="1.000000" stroke="none" 
	d="
M481.409058,428.957275 
	C493.059784,424.004730 505.239716,421.399811 518.075806,427.290009 
	C505.995392,424.194672 493.887726,426.084717 481.409058,428.957275 
z"/>
<path fill="#F08A70" opacity="1.000000" stroke="none" 
	d="
M524.129639,433.466095 
	C527.828186,437.910278 527.872070,443.078674 525.322632,448.722687 
	C524.737976,443.935059 524.426697,438.890808 524.129639,433.466095 
z"/>
<path fill="#F08A70" opacity="1.000000" stroke="none" 
	d="
M518.461426,427.928467 
	C520.223572,429.135559 522.032532,430.678467 523.908081,432.533386 
	C522.152588,431.318359 520.330444,429.791351 518.461426,427.928467 
z"/>
<path fill="#F08A70" opacity="1.000000" stroke="none" 
	d="
M510.165344,468.668091 
	C509.231689,470.663727 507.951111,472.649628 506.409485,474.812744 
	C507.371735,472.879456 508.595093,470.768921 510.165344,468.668091 
z"/>
<path fill="#F08A70" opacity="1.000000" stroke="none" 
	d="
M503.929016,478.400909 
	C503.402893,480.094177 502.550293,481.889740 501.450745,483.898254 
	C502.003357,482.241852 502.802917,480.372528 503.929016,478.400909 
z"/>
<path fill="#F08A70" opacity="1.000000" stroke="none" 
	d="
M469.417236,434.913940 
	C470.738953,433.868378 472.411957,432.836182 474.417877,431.751373 
	C473.090027,432.774902 471.429291,433.851074 469.417236,434.913940 
z"/>
<path fill="#F08A70" opacity="1.000000" stroke="none" 
	d="
M459.672882,441.709137 
	C460.472015,440.843170 461.427856,440.061737 462.688110,439.194824 
	C462.494568,439.946075 461.996643,440.782806 461.248657,441.791199 
	C460.608917,441.906494 460.219269,441.850098 459.672882,441.709137 
z"/>
<path fill="#F08A70" opacity="1.000000" stroke="none" 
	d="
M512.732544,465.178925 
	C512.435059,466.096954 511.796112,467.066254 510.929169,468.214111 
	C511.264496,467.338501 511.827820,466.284363 512.732544,465.178925 
z"/>
<path fill="#F08A70" opacity="1.000000" stroke="none" 
	d="
M521.677551,454.160553 
	C521.194275,455.264008 520.399292,456.430298 519.334473,457.731476 
	C519.831726,456.652039 520.598816,455.437744 521.677551,454.160553 
z"/>
<path fill="#F08A70" opacity="1.000000" stroke="none" 
	d="
M477.103027,430.779602 
	C477.914886,430.133087 479.080170,429.547729 480.575104,428.963318 
	C479.755310,429.589752 478.605865,430.215240 477.103027,430.779602 
z"/>
<path fill="#F08A70" opacity="1.000000" stroke="none" 
	d="
M523.655273,451.123779 
	C523.509338,451.908386 523.054321,452.784424 522.342651,453.807617 
	C522.506042,453.041565 522.926147,452.128418 523.655273,451.123779 
z"/>
<path fill="#F08A70" opacity="1.000000" stroke="none" 
	d="
M515.921082,461.335938 
	C515.689453,462.109192 515.129578,462.901642 514.302856,463.815491 
	C514.554871,463.076294 515.073914,462.215729 515.921082,461.335938 
z"/>
<path fill="#F08A70" opacity="1.000000" stroke="none" 
	d="
M465.119202,437.748901 
	C465.566254,437.110291 466.346100,436.477783 467.420898,435.772522 
	C466.961243,436.384857 466.206635,437.069916 465.119202,437.748901 
z"/>
<path fill="#F08A70" opacity="1.000000" stroke="none" 
	d="
M475.089844,431.708374 
	C475.266449,431.367371 475.755768,431.044647 476.546906,430.690552 
	C476.366638,431.015045 475.884552,431.370819 475.089844,431.708374 
z"/>
<path fill="#F08A70" opacity="1.000000" stroke="none" 
	d="
M505.824371,475.300507 
	C505.856049,475.632751 505.669678,476.100739 505.259216,476.696564 
	C505.225525,476.361694 505.415924,475.898956 505.824371,475.300507 
z"/>
<path fill="#F08A70" opacity="1.000000" stroke="none" 
	d="
M524.799805,449.240112 
	C524.836731,449.581940 524.660095,450.097931 524.251465,450.771057 
	C524.208374,450.423584 524.397339,449.918915 524.799805,449.240112 
z"/>
<path fill="#F08A70" opacity="1.000000" stroke="none" 
	d="
M500.936096,484.364868 
	C501.028198,484.737366 500.887146,485.287964 500.522705,486.021362 
	C500.433868,485.650391 500.568451,485.096680 500.936096,484.364868 
z"/>
<path fill="#F08A70" opacity="1.000000" stroke="none" 
	d="
M463.409058,438.952026 
	C463.510803,438.625702 463.886078,438.246338 464.526489,437.802734 
	C464.421997,438.125336 464.052277,438.512207 463.409058,438.952026 
z"/>
<path fill="#F08A70" opacity="1.000000" stroke="none" 
	d="
M517.829346,459.246643 
	C518.041382,459.480133 517.909058,459.763275 517.408081,460.068512 
	C517.238281,459.840515 517.386841,459.575775 517.829346,459.246643 
z"/>
<path fill="#F08A70" opacity="1.000000" stroke="none" 
	d="
M467.961426,435.658386 
	C467.835266,435.361633 468.053406,435.144531 468.623718,435.031891 
	C468.713135,435.305573 468.489716,435.506134 467.961426,435.658386 
z"/>
<path fill="#F08A70" opacity="1.000000" stroke="none" 
	d="
M504.739868,477.236389 
	C504.969147,477.412354 504.901978,477.705292 504.509521,478.089722 
	C504.294647,477.901764 504.381012,477.625824 504.739868,477.236389 
z"/>
<path fill="#F08A70" opacity="1.000000" stroke="none" 
	d="
M513.754089,464.174072 
	C513.962830,464.401855 513.833130,464.683228 513.335571,464.985657 
	C513.176819,464.764832 513.326111,464.505157 513.754089,464.174072 
z"/>
<path fill="#F08A70" opacity="1.000000" stroke="none" 
	d="
M516.954224,460.302185 
	C517.025696,460.476440 516.885132,460.771667 516.515991,461.167877 
	C516.333069,460.929962 516.484680,460.648041 516.954224,460.302185 
z"/>
<path fill="#FD8955" opacity="1.000000" stroke="none" 
	d="
M409.488892,493.021240 
	C408.311707,486.942932 407.467804,480.871063 406.828949,474.777710 
	C406.670502,473.266235 406.754211,471.454865 407.451385,470.176666 
	C410.161591,465.207855 409.238220,460.677917 406.596008,456.062347 
	C405.477509,454.108582 404.854675,451.871033 404.006042,449.371338 
	C407.423370,455.116364 411.657928,460.957458 414.014038,467.477325 
	C416.093475,473.231598 416.472504,479.717865 416.870361,485.927826 
	C417.237732,491.662109 415.756866,492.743866 409.488892,493.021240 
z"/>
<path fill="#F08A70" opacity="1.000000" stroke="none" 
	d="
M550.598145,368.021973 
	C538.244751,362.175690 525.317566,358.057556 511.225616,357.714874 
	C495.005585,357.320465 480.116760,361.600281 465.636597,369.224854 
	C466.039520,368.455841 466.645721,367.231415 467.577820,366.885681 
	C475.749207,363.854675 483.978790,360.980499 492.880402,357.988678 
	C494.072723,357.654816 494.575745,357.392151 495.078766,357.129456 
	C497.127533,357.055603 499.176331,356.981750 501.941589,356.860046 
	C503.159058,356.568268 503.660034,356.324341 504.161011,356.080383 
	C517.799866,355.459015 530.802856,358.341461 543.351868,363.429596 
	C545.894897,364.460724 548.130615,366.249695 550.598145,368.021973 
z"/>
<path fill="#F08A70" opacity="1.000000" stroke="none" 
	d="
M577.965759,448.528839 
	C583.060120,434.950928 585.083130,420.967804 580.934448,406.513611 
	C580.388977,404.613251 579.692444,402.756256 579.047852,400.503998 
	C580.632080,404.199829 583.320374,408.192902 583.619141,412.357422 
	C584.325073,422.197723 585.072449,432.223663 581.643372,441.829132 
	C580.823975,444.124512 579.414917,446.209351 577.965759,448.528839 
z"/>
<path fill="#FEAD48" opacity="1.000000" stroke="none" 
	d="
M535.106079,526.124878 
	C535.715637,521.382446 536.533020,516.949524 537.588745,512.222412 
	C538.665466,512.247620 539.503906,512.567139 540.671143,512.943298 
	C540.972351,516.639709 541.240784,520.313171 540.830017,523.909119 
	C540.453735,527.203003 538.951721,529.539185 535.106079,526.124878 
z"/>
<path fill="#FEAD48" opacity="1.000000" stroke="none" 
	d="
M445.056641,383.964508 
	C444.855530,384.249664 444.654419,384.534790 444.001953,385.025513 
	C443.295502,385.419556 443.118744,385.664490 443.020325,385.965973 
	C442.829407,386.255402 442.638458,386.544830 441.966858,386.874481 
	C441.486237,386.914703 441.013214,386.811798 441.013245,386.811798 
	C441.344666,384.555359 440.894379,381.584137 442.169006,380.190155 
	C444.886780,377.217896 448.470215,375.023071 451.798798,372.649658 
	C452.073120,372.454071 453.105988,373.322296 453.959503,374.260925 
	C454.164520,375.203369 454.196442,375.581146 454.228363,375.958923 
	C454.228363,375.958923 454.151245,376.165649 453.771606,376.240234 
	C452.977173,376.882263 452.562347,377.449707 452.147522,378.017151 
	C452.147491,378.017120 452.113342,378.173035 451.755341,378.192841 
	C451.042694,378.629913 450.688049,379.047180 450.333435,379.464478 
	C450.333435,379.464478 450.317230,379.355408 450.108704,379.424011 
	C449.687469,379.770233 449.474792,380.047852 449.262115,380.325470 
	C449.262115,380.325470 449.133057,380.013794 448.867157,380.148804 
	C447.762238,381.189423 446.923248,382.095062 446.084259,383.000702 
	C446.084259,383.000702 446.077362,383.088654 445.831970,383.177612 
	C445.334076,383.441559 445.157410,383.674194 445.056641,383.964508 
z"/>
<path fill="#FEAD48" opacity="1.000000" stroke="none" 
	d="
M435.729431,418.696533 
	C438.759369,420.858734 440.307312,428.094849 438.232605,430.180206 
	C437.619171,430.796844 435.694275,430.108765 434.370361,430.018585 
	C434.700409,426.233734 435.030487,422.448853 435.729431,418.696533 
z"/>
<path fill="#F08A70" opacity="1.000000" stroke="none" 
	d="
M446.336304,410.643768 
	C450.221497,420.149048 454.106720,429.654358 458.013031,439.530823 
	C457.151123,438.818115 456.009430,437.855530 455.433685,436.627563 
	C453.711670,432.954773 452.211212,429.178131 450.348419,424.815308 
	C449.093445,421.763977 448.114319,419.339355 447.135193,416.914734 
	C446.927612,416.092865 446.720032,415.270966 446.308167,413.779968 
	C446.181366,412.288483 446.258820,411.466125 446.336304,410.643768 
z"/>
<path fill="#FEAD48" opacity="1.000000" stroke="none" 
	d="
M375.609070,555.624756 
	C376.074371,557.215454 376.819672,558.588318 376.559448,559.732544 
	C376.323914,560.768066 375.025146,562.217773 374.132263,562.263794 
	C373.235413,562.309998 371.477509,560.851807 371.473877,560.046692 
	C371.464661,558.004883 372.226837,555.959595 372.680084,553.915710 
	C373.603790,554.379639 374.527466,554.843506 375.609070,555.624756 
z"/>
<path fill="#F08A70" opacity="1.000000" stroke="none" 
	d="
M440.620117,388.053711 
	C437.166901,392.499786 441.475952,396.027252 442.318787,400.315948 
	C440.943817,397.390381 439.508026,394.098267 438.184021,390.167725 
	C438.555756,389.056061 438.815674,388.582886 439.075592,388.109711 
	C439.487640,388.085907 439.899658,388.062103 440.620117,388.053711 
z"/>
<path fill="#FEAD48" opacity="1.000000" stroke="none" 
	d="
M446.892029,417.226685 
	C448.114319,419.339355 449.093445,421.763977 450.118805,424.555908 
	C444.579407,424.563202 445.852295,420.937500 446.892029,417.226685 
z"/>
<path fill="#F08A70" opacity="1.000000" stroke="none" 
	d="
M568.033752,382.345306 
	C565.900696,380.631622 563.742249,378.579865 561.470947,376.237488 
	C563.574890,377.966980 565.791626,379.987091 568.033752,382.345306 
z"/>
<path fill="#FEAD48" opacity="1.000000" stroke="none" 
	d="
M446.311340,410.420837 
	C446.258820,411.466125 446.181366,412.288483 446.113770,413.525238 
	C443.206146,412.993439 440.682312,411.859314 443.861206,408.348938 
	C444.889252,408.928864 445.451813,409.384949 446.014374,409.841064 
	C446.014374,409.841064 446.286438,410.197876 446.311340,410.420837 
z"/>
<path fill="#F08A70" opacity="1.000000" stroke="none" 
	d="
M553.387207,481.865509 
	C554.696594,479.917480 556.337402,477.919586 558.263855,475.775879 
	C556.939209,477.691956 555.328918,479.753815 553.387207,481.865509 
z"/>
<path fill="#F08A70" opacity="1.000000" stroke="none" 
	d="
M446.010223,409.481415 
	C445.451813,409.384949 444.889252,408.928864 444.178528,408.233887 
	C443.427094,405.818451 442.823822,403.641876 442.289917,401.079437 
	C443.574890,403.502960 444.790466,406.312347 446.010223,409.481415 
z"/>
<path fill="#F08A70" opacity="1.000000" stroke="none" 
	d="
M547.886292,488.505859 
	C549.145447,486.470490 550.753174,484.413971 552.646851,482.217621 
	C551.366821,484.213440 549.800842,486.349091 547.886292,488.505859 
z"/>
<path fill="#F08A70" opacity="1.000000" stroke="none" 
	d="
M569.618958,462.580780 
	C570.752808,460.734650 571.886658,458.888550 573.258545,456.837219 
	C573.061890,458.463257 572.627380,460.294525 571.738647,462.498230 
	C570.870850,462.928040 570.457336,462.985443 569.938660,462.926331 
	C569.833557,462.809784 569.618958,462.580780 569.618958,462.580780 
z"/>
<path fill="#F08A70" opacity="1.000000" stroke="none" 
	d="
M573.884277,456.521851 
	C574.737122,454.129669 575.938049,451.684052 577.367432,449.005798 
	C576.474670,451.338257 575.353516,453.903351 573.884277,456.521851 
z"/>
<path fill="#FD8955" opacity="1.000000" stroke="none" 
	d="
M362.633972,426.067749 
	C361.515656,426.524719 360.017548,426.954437 358.245239,427.165161 
	C359.398773,426.644257 360.826477,426.342377 362.633972,426.067749 
z"/>
<path fill="#F08A70" opacity="1.000000" stroke="none" 
	d="
M561.358398,472.895142 
	C562.065002,471.642822 563.107727,470.340179 564.436646,468.911804 
	C563.713318,470.138977 562.703857,471.491882 561.358398,472.895142 
z"/>
<path fill="#FEAD48" opacity="1.000000" stroke="none" 
	d="
M533.506714,529.232910 
	C533.004639,529.783691 532.433044,530.063110 531.861450,530.342529 
	C531.751221,529.921509 531.640930,529.500427 531.530640,529.079407 
	C532.166138,529.040100 532.801636,529.000793 533.506714,529.232910 
z"/>
<path fill="#F08A70" opacity="1.000000" stroke="none" 
	d="
M572.949829,388.420837 
	C572.043945,387.719452 571.144104,386.694183 570.183472,385.379852 
	C571.067078,386.092865 572.011475,387.094940 572.949829,388.420837 
z"/>
<path fill="#FEAD48" opacity="1.000000" stroke="none" 
	d="
M541.322876,512.975830 
	C541.638367,512.231995 542.276672,511.464020 542.915039,510.696045 
	C543.123962,510.900635 543.332886,511.105194 543.541809,511.309753 
	C542.909790,511.857056 542.277771,512.404358 541.322876,512.975830 
z"/>
<path fill="#F08A70" opacity="1.000000" stroke="none" 
	d="
M567.333496,465.928802 
	C567.725830,464.947723 568.418579,463.940582 569.365112,462.757111 
	C569.618958,462.580780 569.833557,462.809784 569.905762,463.242310 
	C569.934814,464.096039 569.891602,464.517181 569.848389,464.938354 
	C569.110229,465.259827 568.372009,465.581299 567.333496,465.928802 
z"/>
<path fill="#FEAD48" opacity="1.000000" stroke="none" 
	d="
M438.861938,387.928467 
	C438.815674,388.582886 438.555756,389.056061 438.167786,389.767212 
	C437.580261,389.474701 437.120758,388.944214 436.661224,388.413727 
	C437.323578,388.191559 437.985931,387.969391 438.861938,387.928467 
z"/>
<path fill="#F08A70" opacity="1.000000" stroke="none" 
	d="
M543.009155,495.606110 
	C543.270081,494.604767 543.850159,493.501526 544.697632,492.233429 
	C544.419373,493.213776 543.873840,494.359009 543.009155,495.606110 
z"/>
<path fill="#F08A70" opacity="1.000000" stroke="none" 
	d="
M454.524719,375.951996 
	C454.196442,375.581146 454.164520,375.203369 454.133057,374.544678 
	C454.897461,374.228241 455.661407,374.192719 456.803833,374.216064 
	C456.395264,374.831635 455.608154,375.388367 454.524719,375.951996 
z"/>
<path fill="#FEAD48" opacity="1.000000" stroke="none" 
	d="
M458.050079,372.129761 
	C458.852325,371.456207 459.654602,370.782654 460.656921,370.363281 
	C460.669189,371.178284 460.481445,371.739136 460.293701,372.299957 
	C460.293671,372.299957 460.236816,372.274841 459.877655,372.230133 
	C459.029022,372.166870 458.539551,372.148315 458.050079,372.129761 
z"/>
<path fill="#F08A70" opacity="1.000000" stroke="none" 
	d="
M460.598694,372.221924 
	C460.481445,371.739136 460.669189,371.178284 461.009094,370.359467 
	C461.674957,370.136566 462.188629,370.171631 463.077362,370.293945 
	C462.602844,370.968750 461.753265,371.556335 460.598694,372.221924 
z"/>
<path fill="#F08A70" opacity="1.000000" stroke="none" 
	d="
M574.966125,391.556396 
	C574.389954,391.132385 573.817444,390.399231 573.208313,389.390320 
	C573.771057,389.825439 574.370422,390.536346 574.966125,391.556396 
z"/>
<path fill="#F08A70" opacity="1.000000" stroke="none" 
	d="
M555.552551,371.196472 
	C554.881104,371.065735 554.191650,370.648560 553.289001,370.014191 
	C553.895386,370.167999 554.714966,370.539032 555.552551,371.196472 
z"/>
<path fill="#F08A70" opacity="1.000000" stroke="none" 
	d="
M457.916870,372.379333 
	C458.539551,372.148315 459.029022,372.166870 459.877991,372.261200 
	C459.437683,372.925934 458.637817,373.514893 457.545410,374.162903 
	C457.429749,373.690979 457.606689,373.159943 457.916870,372.379333 
z"/>
<path fill="#F08A70" opacity="1.000000" stroke="none" 
	d="
M576.814697,394.842621 
	C576.223328,394.342041 575.674927,393.507751 575.099121,392.370300 
	C575.667114,392.881073 576.262390,393.694977 576.814697,394.842621 
z"/>
<path fill="#FEAD48" opacity="1.000000" stroke="none" 
	d="
M570.172363,464.869141 
	C569.891602,464.517181 569.934814,464.096039 570.010864,463.358856 
	C570.457336,462.985443 570.870850,462.928040 571.592651,462.818756 
	C571.432739,463.444580 570.964600,464.122253 570.172363,464.869141 
z"/>
<path fill="#F08A70" opacity="1.000000" stroke="none" 
	d="
M545.340332,491.863312 
	C545.407471,491.289948 545.776917,490.631195 546.399170,489.829895 
	C546.315552,490.384186 545.979065,491.081085 545.340332,491.863312 
z"/>
<path fill="#FEAD48" opacity="1.000000" stroke="none" 
	d="
M494.883911,356.957733 
	C494.575745,357.392151 494.072723,357.654816 493.284119,357.952271 
	C493.562012,357.586700 494.125549,357.186340 494.883911,356.957733 
z"/>
<path fill="#FEAD48" opacity="1.000000" stroke="none" 
	d="
M620.766968,437.703308 
	C621.046631,437.759369 621.214722,437.918640 621.382751,438.077911 
	C621.286865,438.166046 621.191040,438.254150 621.095154,438.342285 
	C620.948547,438.163666 620.801941,437.985077 620.766968,437.703308 
z"/>
<path fill="#F08A70" opacity="1.000000" stroke="none" 
	d="
M559.818604,474.464600 
	C559.841492,474.083771 560.143799,473.650513 560.697144,473.125793 
	C560.664795,473.493652 560.381409,473.952911 559.818604,474.464600 
z"/>
<path fill="#F08A70" opacity="1.000000" stroke="none" 
	d="
M578.756653,399.081726 
	C578.438904,398.886810 578.142029,398.383759 577.844482,397.585052 
	C578.155090,397.784149 578.466309,398.278900 578.756653,399.081726 
z"/>
<path fill="#F08A70" opacity="1.000000" stroke="none" 
	d="
M560.961914,375.398987 
	C560.633850,375.395660 560.221680,375.145294 559.690430,374.677765 
	C560.006836,374.691071 560.442322,374.921539 560.961914,375.398987 
z"/>
<path fill="#F08A70" opacity="1.000000" stroke="none" 
	d="
M559.504089,374.188416 
	C559.122925,374.186493 558.670044,373.909119 558.117310,373.385254 
	C558.489014,373.396820 558.960754,373.654907 559.504089,374.188416 
z"/>
<path fill="#FEAD48" opacity="1.000000" stroke="none" 
	d="
M503.876404,356.098297 
	C503.660034,356.324341 503.159058,356.568268 502.380249,356.820740 
	C502.598877,356.591553 503.095337,356.353882 503.876404,356.098297 
z"/>
<path fill="#F08A70" opacity="1.000000" stroke="none" 
	d="
M564.984375,468.671204 
	C564.985962,468.313110 565.236511,467.842438 565.737671,467.271423 
	C565.736694,467.633575 565.485046,468.096100 564.984375,468.671204 
z"/>
<path fill="#F08A70" opacity="1.000000" stroke="none" 
	d="
M551.748474,368.823700 
	C551.552246,369.066559 551.239807,368.983032 550.830566,368.548950 
	C551.033569,368.324951 551.333069,368.424622 551.748474,368.823700 
z"/>
<path fill="#F08A70" opacity="1.000000" stroke="none" 
	d="
M465.012573,369.333679 
	C465.149811,369.626892 464.951569,369.840393 464.410034,369.947632 
	C464.305481,369.669159 464.508942,369.473389 465.012573,369.333679 
z"/>
<path fill="#F08A70" opacity="1.000000" stroke="none" 
	d="
M556.637573,371.976044 
	C556.462341,372.079926 556.152466,371.971680 555.705872,371.649292 
	C555.880371,371.544769 556.191650,371.654358 556.637573,371.976044 
z"/>
<path fill="#F08A70" opacity="1.000000" stroke="none" 
	d="
M566.336060,466.859894 
	C566.121155,466.630157 566.243286,466.369202 566.735474,466.115967 
	C566.885742,466.334717 566.741577,466.569733 566.336060,466.859894 
z"/>
<path fill="#F08A70" opacity="1.000000" stroke="none" 
	d="
M558.820068,475.538940 
	C558.617126,475.278656 558.772583,475.000153 559.266968,474.682983 
	C559.343872,474.869751 559.201416,475.161926 558.820068,475.538940 
z"/>
<path fill="#F08A70" opacity="1.000000" stroke="none" 
	d="
M441.007812,387.095398 
	C441.013214,386.811798 441.486237,386.914703 441.720856,386.973022 
	C441.961639,387.380859 441.818054,387.650665 441.293762,387.891846 
	C441.042664,387.754974 441.022522,387.566956 441.007812,387.095398 
z"/>
<path fill="#F08A70" opacity="1.000000" stroke="none" 
	d="
M546.871277,489.631165 
	C546.780762,489.440979 546.929871,489.135040 547.306763,488.701050 
	C547.393250,488.887115 547.252075,489.201263 546.871277,489.631165 
z"/>
<path fill="#F08A70" opacity="1.000000" stroke="none" 
	d="
M568.928467,383.557434 
	C568.701599,383.736542 568.486389,383.611450 568.334290,383.148438 
	C568.542603,383.042786 568.723511,383.190369 568.928467,383.557434 
z"/>
<path fill="#F08A70" opacity="1.000000" stroke="none" 
	d="
M542.203857,496.710205 
	C541.952576,496.507080 542.034729,496.215118 542.472656,495.852509 
	C542.695557,496.059143 542.598572,496.339020 542.203857,496.710205 
z"/>
<path fill="#FD8955" opacity="1.000000" stroke="none" 
	d="
M717.552185,323.064819 
	C717.827637,327.204315 719.435364,331.869202 714.089539,334.520081 
	C713.214233,334.954102 713.470032,337.324127 712.791382,338.576111 
	C711.607788,340.759460 710.104065,342.769165 708.390625,344.931152 
	C708.029480,343.026428 708.206665,341.017700 707.960571,339.062256 
	C706.990540,331.352112 711.086609,326.672760 717.552185,323.064819 
z"/>
<path fill="#FD8955" opacity="1.000000" stroke="none" 
	d="
M708.014771,379.448425 
	C711.415100,382.002991 710.432129,385.322235 708.373840,388.849640 
	C708.019775,385.971588 708.009888,382.937286 708.014771,379.448425 
z"/>
<path fill="#F08A70" opacity="1.000000" stroke="none" 
	d="
M446.378540,382.923035 
	C446.923248,382.095062 447.762238,381.189423 448.943115,380.299774 
	C448.414276,381.158997 447.543579,382.002197 446.378540,382.923035 
z"/>
<path fill="#F08A70" opacity="1.000000" stroke="none" 
	d="
M452.419922,377.972229 
	C452.562347,377.449707 452.977173,376.882263 453.668396,376.279297 
	C453.527344,376.804932 453.109833,377.366089 452.419922,377.972229 
z"/>
<path fill="#F08A70" opacity="1.000000" stroke="none" 
	d="
M450.594299,379.378235 
	C450.688049,379.047180 451.042694,378.629913 451.676453,378.180664 
	C451.588776,378.529755 451.221954,378.910889 450.594299,379.378235 
z"/>
<path fill="#F08A70" opacity="1.000000" stroke="none" 
	d="
M443.260498,385.909760 
	C443.118744,385.664490 443.295502,385.419556 443.754944,385.127686 
	C443.965790,385.388824 443.812927,385.665253 443.260498,385.909760 
z"/>
<path fill="#F08A70" opacity="1.000000" stroke="none" 
	d="
M445.286255,383.913269 
	C445.157410,383.674194 445.334076,383.441559 445.787872,383.177002 
	C445.966980,383.428528 445.809235,383.686707 445.286255,383.913269 
z"/>
<path fill="#F08A70" opacity="1.000000" stroke="none" 
	d="
M449.514465,380.245972 
	C449.474792,380.047852 449.687469,379.770233 450.163696,379.427307 
	C450.207123,379.630157 449.986969,379.898315 449.514465,380.245972 
z"/>
<path fill="#FEAD48" opacity="1.000000" stroke="none" 
	d="
M551.924438,576.330261 
	C552.128052,576.286804 552.373901,576.526184 552.743896,576.993530 
	C552.567505,577.018616 552.267090,576.815918 551.924438,576.330261 
z"/>
</svg>